<svg xmlns="http://www.w3.org/2000/svg" viewBox="0 0 1600 900"><g fill="none" stroke="#b7bd88"><path d="M950.4 250.0 L951.4 251.6 L951.3 253.2 L950.1 254.8 L948.1 256.2 L945.9 257.5 L944.0 258.7 L942.8 260.1 L942.4 261.7 L942.4 263.4 L942.1 265.3 L941.1 267.0 L939.2 268.4 L936.2 269.3 L932.6 269.7 L928.8 269.8 L925.0 269.7 L921.6 269.7 L918.6 269.7 L915.7 269.8 L912.9 269.9 L910.2 269.9 L907.6 269.9 L905.0 269.9 L902.5 270.2 L900.0 270.8 L897.3 271.5 L894.3 272.4 L891.2 273.0 L888.1 273.1 L885.3 272.6 L882.8 271.7 L880.7 270.5 L878.7 269.4 L876.5 268.6 L873.7 268.1 L870.3 268.0 L866.4 267.9 L862.4 267.6 L858.9 267.0 L856.1 266.0 L854.1 264.5 L853.0 262.9 L852.3 261.2 L851.9 259.5 L851.7 257.8 L851.8 256.2 L852.5 254.5 L853.6 252.9 L855.2 251.4 L856.8 250.0 L858.0 248.7 L858.4 247.4 L858.2 246.0 L857.4 244.5 L856.9 243.0 L857.0 241.5 L858.2 240.2 L860.4 239.1 L863.3 238.4 L866.4 237.8 L869.0 237.2 L870.9 236.4 L872.1 235.2 L872.9 233.6 L873.7 231.9 L874.9 230.2 L876.6 228.7 L878.7 227.4 L881.2 226.3 L884.0 225.4 L886.9 224.6 L890.0 223.9 L893.3 223.5 L896.7 223.5 L900.0 224.0 L903.2 224.8 L906.1 225.9 L908.8 227.0 L911.4 227.8 L914.2 228.1 L917.3 228.2 L920.6 228.2 L923.8 228.4 L926.6 229.0 L928.7 230.3 L929.9 231.9 L930.4 233.8 L930.7 235.6 L931.0 237.2 L931.8 238.4 L933.2 239.5 L935.0 240.4 L937.0 241.3 L938.9 242.3 L940.7 243.4 L942.5 244.5 L944.4 245.8 L946.5 247.1 L948.6 248.5 L950.4 250.0 Z" stroke-width="1.6"/><path d="M987.1 250.0 L988.4 252.8 L987.9 255.6 L985.7 258.2 L982.4 260.6 L978.8 262.8 L975.9 265.0 L974.2 267.5 L973.7 270.3 L973.7 273.4 L973.2 276.6 L971.2 279.5 L967.4 281.7 L961.9 283.0 L955.4 283.5 L948.5 283.4 L942.1 283.1 L936.3 283.0 L931.2 283.1 L926.5 283.4 L922.0 283.8 L917.5 284.2 L913.1 284.4 L908.8 284.8 L904.5 285.4 L900.0 286.4 L895.3 287.7 L890.2 288.9 L884.8 289.8 L879.6 289.8 L874.7 288.9 L870.6 287.2 L866.9 285.2 L863.3 283.4 L859.2 282.1 L854.1 281.6 L847.9 281.5 L841.0 281.4 L834.1 280.9 L828.1 279.7 L823.6 277.8 L820.7 275.2 L819.2 272.2 L818.7 269.1 L818.5 266.1 L818.6 263.2 L818.9 260.4 L819.9 257.6 L821.5 255.0 L823.7 252.4 L825.9 250.0 L827.5 247.7 L828.0 245.5 L827.4 243.1 L826.3 240.5 L825.5 237.9 L826.0 235.4 L828.4 233.2 L832.5 231.4 L837.6 230.2 L842.8 229.2 L847.0 228.1 L849.9 226.5 L851.6 224.2 L852.6 221.4 L853.8 218.2 L855.7 215.1 L858.6 212.4 L862.5 210.2 L867.1 208.5 L872.2 207.2 L877.5 206.1 L882.9 205.3 L888.6 204.8 L894.3 204.9 L900.0 205.8 L905.4 207.2 L910.4 209.0 L915.0 210.6 L919.7 211.7 L924.6 212.2 L929.9 212.2 L935.5 212.3 L941.0 212.7 L945.6 214.1 L948.9 216.4 L950.7 219.4 L951.3 222.7 L951.6 225.8 L952.3 228.4 L954.0 230.4 L956.8 232.0 L960.5 233.4 L964.5 234.8 L968.4 236.5 L971.9 238.3 L975.1 240.4 L978.2 242.5 L981.5 244.9 L984.6 247.3 L987.1 250.0 Z" stroke-width="0.8"/><path d="M1023.8 250.0 L1025.0 253.9 L1024.0 257.8 L1020.9 261.5 L1016.4 264.9 L1011.8 268.2 L1008.2 271.4 L1006.2 275.0 L1005.7 279.1 L1005.7 283.5 L1004.6 288.0 L1001.3 291.9 L995.4 294.8 L987.0 296.3 L977.3 296.7 L967.3 296.3 L958.1 295.8 L950.1 295.6 L943.2 295.9 L937.0 296.7 L931.0 297.7 L925.0 298.6 L918.8 299.4 L912.7 300.2 L906.4 301.1 L900.0 302.5 L893.2 304.1 L885.9 305.7 L878.4 306.5 L871.1 306.3 L864.3 304.9 L858.4 302.6 L853.1 299.9 L847.7 297.5 L841.6 296.0 L833.9 295.5 L824.7 295.5 L814.7 295.4 L804.9 294.7 L796.6 292.8 L790.7 289.7 L787.4 285.7 L786.2 281.3 L786.2 276.8 L786.6 272.4 L787.0 268.4 L787.5 264.4 L788.5 260.6 L790.2 256.9 L792.6 253.4 L795.0 250.0 L796.6 246.7 L797.0 243.5 L796.2 240.1 L794.8 236.5 L794.2 232.8 L795.4 229.3 L799.2 226.3 L805.2 224.0 L812.5 222.2 L819.5 220.8 L825.0 219.0 L828.6 216.5 L830.4 212.9 L831.4 208.5 L832.8 203.8 L835.5 199.2 L839.9 195.3 L845.8 192.4 L852.8 190.4 L860.3 188.9 L868.1 187.8 L876.0 187.0 L884.0 186.7 L892.1 187.0 L900.0 188.1 L907.6 190.0 L914.6 192.2 L921.3 194.2 L928.0 195.5 L935.0 196.1 L942.6 196.2 L950.5 196.4 L958.0 197.3 L964.2 199.5 L968.4 202.9 L970.6 207.3 L971.3 212.0 L971.7 216.4 L972.9 219.8 L975.8 222.5 L980.6 224.4 L986.7 226.2 L993.2 228.1 L999.3 230.3 L1004.6 233.0 L1009.1 236.0 L1013.2 239.2 L1017.2 242.6 L1020.9 246.2 L1023.8 250.0 Z" stroke-width="0.8"/><path d="M1060.0 250.0 L1061.1 255.1 L1059.6 260.1 L1055.8 264.9 L1050.5 269.3 L1045.1 273.6 L1041.0 277.9 L1038.9 282.7 L1038.4 288.0 L1038.1 293.8 L1036.1 299.5 L1031.2 304.3 L1022.6 307.6 L1011.1 309.2 L998.0 309.3 L985.0 308.5 L973.3 307.7 L963.3 307.6 L954.9 308.4 L947.4 309.9 L940.1 311.7 L932.6 313.4 L924.8 314.9 L916.7 316.1 L908.5 317.4 L900.0 319.0 L891.1 320.8 L881.7 322.4 L872.1 323.2 L862.6 322.7 L854.0 320.8 L846.2 317.9 L839.2 314.6 L831.9 312.0 L823.4 310.4 L812.9 309.9 L800.6 310.1 L787.4 309.9 L774.9 308.7 L764.7 306.0 L757.9 301.6 L754.7 296.1 L754.2 290.1 L755.2 284.1 L756.3 278.5 L757.0 273.2 L757.4 268.3 L758.0 263.5 L759.3 258.9 L761.4 254.4 L763.6 250.0 L765.3 245.8 L765.6 241.5 L764.7 237.1 L763.4 232.5 L763.2 227.8 L765.4 223.4 L770.7 219.6 L778.7 216.6 L787.8 214.4 L796.3 212.3 L802.8 209.8 L806.6 206.1 L808.2 201.1 L809.1 195.1 L810.8 188.6 L814.4 182.6 L820.5 177.7 L828.7 174.3 L838.3 172.1 L848.5 170.8 L858.9 169.9 L869.2 169.3 L879.6 169.1 L889.9 169.5 L900.0 170.8 L909.7 172.9 L918.9 175.4 L927.6 177.7 L936.4 179.2 L945.6 179.9 L955.4 180.1 L965.4 180.6 L974.7 182.1 L982.2 185.3 L987.1 190.0 L989.6 195.9 L990.3 201.9 L990.9 207.3 L993.1 211.5 L997.7 214.5 L1005.0 216.7 L1014.0 218.7 L1023.3 221.0 L1031.9 223.9 L1038.9 227.4 L1044.5 231.5 L1049.1 235.8 L1053.4 240.3 L1057.2 245.1 L1060.0 250.0 Z" stroke-width="0.8"/><path d="M1095.8 250.0 L1096.6 256.2 L1094.8 262.3 L1090.6 268.2 L1084.8 273.7 L1078.9 279.1 L1074.6 284.6 L1072.3 290.5 L1071.6 297.2 L1070.7 304.2 L1067.5 310.9 L1060.4 316.4 L1049.0 320.0 L1034.1 321.4 L1017.6 321.1 L1001.6 319.9 L987.6 319.0 L976.0 319.1 L966.4 320.6 L957.9 323.1 L949.4 326.0 L940.5 328.8 L930.9 330.9 L920.9 332.6 L910.6 334.2 L900.0 335.8 L889.0 337.6 L877.5 339.1 L865.8 339.7 L854.3 338.9 L843.7 336.6 L834.1 333.3 L825.0 329.7 L815.5 326.8 L804.5 325.3 L791.1 325.0 L775.6 325.2 L759.4 324.9 L744.4 323.1 L732.7 319.2 L725.6 313.4 L723.0 306.2 L723.6 298.5 L725.7 291.0 L727.6 284.1 L728.4 277.9 L728.3 272.0 L728.0 266.4 L728.5 260.8 L729.9 255.4 L731.8 250.0 L733.3 244.8 L733.7 239.5 L733.0 234.1 L732.2 228.5 L732.7 222.8 L736.1 217.6 L743.0 213.1 L752.6 209.5 L763.4 206.6 L773.0 203.9 L780.0 200.3 L783.7 195.4 L784.9 188.7 L785.6 180.9 L787.7 172.7 L792.5 165.3 L800.6 159.6 L811.4 155.9 L823.9 153.9 L836.9 153.0 L849.9 152.5 L862.7 152.2 L875.3 152.1 L887.7 152.5 L900.0 153.8 L911.8 155.9 L923.1 158.5 L934.0 161.0 L944.8 162.7 L956.2 163.5 L968.1 164.0 L980.0 165.0 L990.9 167.3 L999.5 171.6 L1005.0 177.7 L1007.6 185.0 L1008.5 192.2 L1009.7 198.5 L1013.2 203.2 L1020.1 206.4 L1030.3 208.7 L1042.6 210.8 L1055.0 213.5 L1066.0 217.1 L1074.6 221.6 L1080.8 226.8 L1085.6 232.3 L1089.6 238.0 L1093.1 243.9 L1095.8 250.0 Z" stroke-width="0.8"/><path d="M1130.8 250.0 L1131.5 257.3 L1129.8 264.5 L1125.5 271.5 L1119.5 278.2 L1113.5 284.7 L1109.0 291.4 L1106.5 298.6 L1105.2 306.4 L1103.3 314.5 L1098.4 322.1 L1088.8 328.1 L1074.1 331.8 L1055.8 332.9 L1036.0 332.2 L1017.3 330.7 L1001.2 329.8 L988.4 330.4 L977.9 332.8 L968.6 336.6 L959.0 340.9 L948.6 344.7 L937.3 347.6 L925.2 349.7 L912.7 351.2 L900.0 352.7 L886.9 354.3 L873.3 355.6 L859.6 356.0 L846.1 355.0 L833.4 352.4 L821.7 348.8 L810.5 345.1 L798.6 342.2 L784.8 340.8 L768.3 340.6 L749.8 340.8 L730.7 340.1 L713.7 337.5 L701.1 332.3 L694.1 324.8 L692.5 315.8 L694.5 306.5 L697.9 297.6 L700.3 289.5 L700.9 282.3 L699.8 275.7 L698.2 269.2 L697.3 262.8 L697.8 256.4 L699.2 250.0 L700.8 243.7 L701.6 237.5 L701.5 231.1 L701.5 224.5 L703.0 218.0 L707.7 211.9 L715.9 206.7 L727.0 202.5 L738.9 198.9 L749.2 195.2 L756.2 190.5 L759.5 184.0 L760.3 175.6 L760.9 165.9 L763.6 156.1 L770.0 147.6 L780.4 141.3 L794.2 137.5 L809.7 135.9 L825.7 135.6 L841.3 135.7 L856.4 135.7 L871.1 135.6 L885.6 135.9 L900.0 136.9 L914.0 138.9 L927.4 141.5 L940.4 144.0 L953.4 146.0 L966.8 147.2 L980.6 148.2 L994.3 149.8 L1006.5 153.1 L1016.0 158.6 L1022.0 166.0 L1024.9 174.5 L1026.2 182.8 L1028.3 189.7 L1033.6 194.7 L1043.3 198.0 L1056.9 200.2 L1072.8 202.5 L1088.4 205.7 L1101.6 210.1 L1111.4 215.7 L1117.9 222.0 L1122.2 228.8 L1125.5 235.8 L1128.5 242.8 L1130.8 250.0 Z" stroke-width="1.6"/><path d="M1165.3 250.0 L1166.1 258.4 L1164.8 266.7 L1160.8 274.9 L1155.0 282.7 L1149.0 290.4 L1144.2 298.3 L1141.1 306.7 L1139.0 315.7 L1135.5 324.7 L1128.4 333.0 L1115.9 339.3 L1097.9 342.9 L1076.1 343.8 L1053.2 342.6 L1032.1 340.9 L1014.5 340.2 L1000.7 341.6 L989.6 345.2 L979.6 350.6 L969.1 356.3 L957.2 361.3 L943.8 364.9 L929.6 367.1 L914.9 368.5 L900.0 369.6 L884.8 370.8 L869.2 371.8 L853.4 372.1 L837.9 371.0 L823.1 368.4 L809.1 364.7 L795.5 361.0 L780.9 358.3 L764.2 357.0 L744.7 356.8 L723.2 356.8 L701.8 355.5 L683.2 351.8 L670.1 345.1 L663.8 335.8 L663.5 325.0 L667.2 314.0 L671.7 303.7 L674.4 294.7 L674.2 286.7 L671.6 279.3 L668.2 272.1 L665.6 264.8 L665.0 257.4 L666.1 250.0 L667.9 242.7 L669.5 235.4 L670.4 228.1 L671.5 220.7 L674.2 213.3 L680.0 206.4 L689.4 200.5 L701.5 195.4 L714.1 191.0 L724.5 186.3 L731.2 180.2 L734.0 172.1 L734.4 161.8 L735.0 150.3 L738.6 139.0 L747.0 129.4 L760.2 122.8 L777.1 119.4 L795.9 118.5 L814.8 118.9 L833.0 119.6 L850.3 119.7 L867.0 119.5 L883.6 119.4 L900.0 120.0 L916.1 121.7 L931.8 124.2 L947.0 126.9 L962.0 129.2 L977.3 131.0 L992.9 132.7 L1008.0 135.2 L1021.4 139.6 L1031.7 146.2 L1038.2 154.9 L1041.4 164.5 L1043.5 173.6 L1047.1 180.9 L1054.8 186.0 L1067.6 189.1 L1085.0 191.3 L1104.6 193.8 L1123.3 197.5 L1138.5 202.8 L1149.0 209.5 L1155.2 217.2 L1158.5 225.3 L1160.9 233.5 L1163.2 241.7 L1165.3 250.0 Z" stroke-width="0.8"/><path d="M1199.2 250.0 L1200.6 259.5 L1200.0 268.9 L1196.8 278.3 L1191.4 287.4 L1185.3 296.4 L1180.0 305.4 L1176.1 315.0 L1172.5 324.9 L1167.0 334.7 L1157.2 343.4 L1141.5 349.9 L1120.1 353.3 L1095.0 353.8 L1069.4 352.4 L1046.3 350.7 L1027.5 350.4 L1013.1 352.9 L1001.7 358.1 L991.2 365.1 L979.6 372.4 L966.0 378.6 L950.6 382.7 L934.1 384.9 L917.1 385.8 L900.0 386.4 L882.7 387.1 L865.2 387.8 L847.4 388.0 L829.7 387.0 L812.6 384.6 L796.1 381.2 L779.8 377.7 L762.5 375.1 L742.8 373.9 L720.4 373.6 L696.3 373.1 L672.8 370.9 L653.2 365.9 L640.2 357.5 L634.9 346.3 L636.3 333.7 L641.5 321.1 L646.9 309.6 L649.4 299.6 L648.0 290.9 L643.3 282.9 L637.6 275.0 L633.1 266.9 L631.4 258.4 L632.4 250.0 L634.9 241.7 L637.7 233.4 L640.0 225.2 L642.4 216.9 L646.3 208.8 L653.0 201.1 L663.2 194.3 L675.8 188.4 L688.4 182.9 L698.7 176.9 L704.8 169.3 L706.9 159.3 L707.0 147.2 L708.1 134.0 L713.1 121.4 L723.8 111.2 L740.1 104.6 L760.4 101.7 L782.5 101.6 L804.4 102.9 L825.1 104.1 L844.4 104.3 L863.0 103.7 L881.5 103.0 L900.0 103.0 L918.3 104.3 L936.2 106.7 L953.6 109.6 L970.6 112.5 L987.7 115.0 L1004.8 117.7 L1021.2 121.2 L1035.5 126.7 L1046.5 134.6 L1053.6 144.3 L1057.6 154.8 L1060.8 164.4 L1066.4 171.9 L1076.9 176.8 L1093.5 179.7 L1114.9 181.8 L1138.2 184.5 L1159.7 188.9 L1176.4 195.3 L1187.1 203.4 L1192.3 212.5 L1194.4 221.9 L1195.5 231.3 L1197.1 240.7 L1199.2 250.0 Z" stroke-width="0.8"/><path d="M1232.7 250.0 L1235.2 260.5 L1235.8 271.2 L1233.6 281.8 L1228.8 292.2 L1222.5 302.4 L1216.4 312.6 L1211.0 323.2 L1205.3 333.9 L1197.3 344.3 L1184.5 353.3 L1165.5 359.8 L1140.7 363.0 L1112.7 363.2 L1084.7 361.6 L1060.1 360.2 L1040.6 360.8 L1026.0 364.6 L1014.4 371.6 L1003.3 380.4 L990.5 389.3 L975.2 396.4 L957.5 400.8 L938.6 402.7 L919.3 403.0 L900.0 402.9 L880.7 403.0 L861.2 403.6 L841.3 403.9 L821.3 403.2 L801.7 401.2 L782.6 398.2 L763.5 395.1 L743.2 392.6 L720.6 391.3 L695.6 390.7 L669.2 389.5 L644.3 386.2 L624.2 379.5 L611.7 369.2 L607.8 356.2 L610.8 341.8 L617.4 327.7 L623.2 315.1 L625.1 304.4 L621.8 295.2 L614.6 286.6 L606.2 278.0 L599.8 269.0 L597.1 259.5 L598.3 250.0 L602.0 240.6 L606.4 231.5 L610.5 222.4 L614.3 213.3 L619.2 204.4 L626.6 195.9 L637.0 188.1 L649.4 181.1 L661.7 174.4 L671.2 166.9 L676.7 157.6 L678.3 145.9 L678.4 132.0 L680.3 117.2 L687.2 103.6 L700.7 93.0 L720.4 86.6 L744.3 84.6 L769.7 85.5 L794.5 87.6 L817.4 89.2 L838.7 89.2 L859.1 88.0 L879.4 86.4 L900.0 85.7 L920.6 86.5 L940.7 88.9 L960.2 92.3 L979.1 96.0 L997.8 99.5 L1016.2 103.3 L1033.6 108.1 L1048.8 114.7 L1060.6 123.5 L1068.5 134.1 L1073.6 145.1 L1078.6 154.9 L1086.6 162.4 L1100.5 167.1 L1121.0 169.7 L1146.5 171.8 L1173.3 174.9 L1197.3 180.1 L1214.9 187.7 L1225.1 197.2 L1229.0 207.8 L1229.4 218.6 L1229.2 229.2 L1230.3 239.6 L1232.7 250.0 Z" stroke-width="0.8"/><path d="M1266.2 250.0 L1270.2 261.6 L1272.5 273.5 L1271.6 285.4 L1267.2 297.1 L1260.5 308.6 L1253.0 319.9 L1245.4 331.3 L1237.1 342.7 L1226.1 353.5 L1210.0 362.6 L1187.7 369.0 L1159.9 372.0 L1129.3 372.1 L1099.5 370.6 L1073.9 369.7 L1054.1 371.4 L1039.5 376.9 L1027.8 385.8 L1016.0 396.5 L1001.9 406.8 L984.6 414.7 L964.5 419.2 L943.1 420.5 L921.4 419.9 L900.0 419.0 L878.8 418.7 L857.3 419.2 L835.2 419.8 L812.8 419.8 L790.5 418.5 L768.5 416.1 L746.3 413.3 L723.1 410.9 L697.8 409.3 L670.4 408.0 L642.3 405.7 L616.5 401.0 L596.4 392.5 L584.8 380.4 L582.4 365.4 L587.0 349.3 L594.6 333.9 L600.4 320.5 L600.9 309.2 L595.2 299.5 L585.0 290.4 L573.9 281.1 L565.6 271.1 L562.3 260.6 L564.2 250.0 L569.6 239.6 L576.0 229.5 L582.0 219.7 L587.2 209.8 L592.8 200.1 L600.3 190.7 L610.2 181.8 L622.0 173.6 L633.4 165.4 L642.1 156.3 L646.8 145.3 L648.2 131.7 L648.7 116.2 L652.0 100.1 L661.3 85.7 L678.0 75.1 L701.3 69.3 L728.9 68.2 L757.6 70.1 L785.0 73.0 L810.0 74.7 L833.0 74.4 L855.1 72.3 L877.3 69.6 L900.0 68.0 L922.9 68.4 L945.2 70.9 L966.7 75.1 L987.4 79.8 L1007.4 84.7 L1026.9 89.7 L1045.2 95.7 L1061.3 103.3 L1074.0 112.9 L1083.0 124.0 L1089.8 135.3 L1097.0 145.1 L1108.1 152.3 L1125.7 156.6 L1150.3 159.1 L1179.7 161.2 L1209.8 164.9 L1235.6 171.0 L1253.6 180.0 L1262.8 191.1 L1265.0 203.1 L1263.5 215.3 L1262.1 227.1 L1263.0 238.6 L1266.2 250.0 Z" stroke-width="0.8"/><path d="M1300.0 250.0 L1306.0 262.8 L1310.3 275.9 L1310.6 289.2 L1306.4 302.2 L1298.8 314.8 L1289.3 327.1 L1279.0 339.2 L1267.5 351.0 L1253.0 362.0 L1233.6 371.2 L1208.2 377.5 L1177.7 380.4 L1145.1 380.5 L1114.1 379.4 L1088.0 379.4 L1068.3 382.6 L1053.8 389.9 L1041.9 400.8 L1029.3 413.3 L1013.6 424.9 L994.1 433.3 L971.5 437.5 L947.5 438.1 L923.5 436.5 L900.0 434.8 L876.8 434.1 L853.3 434.8 L829.0 436.1 L804.0 437.0 L778.8 436.6 L753.6 434.8 L728.4 432.3 L702.4 429.8 L674.6 427.6 L645.3 425.3 L616.0 421.6 L589.8 415.2 L570.2 404.9 L559.8 390.7 L558.8 373.9 L564.8 356.4 L572.8 339.9 L578.0 325.8 L576.5 314.0 L567.9 304.0 L554.5 294.4 L540.6 284.3 L530.7 273.3 L527.3 261.7 L530.4 250.0 L537.9 238.6 L546.7 227.7 L554.6 217.1 L561.0 206.5 L566.9 195.9 L573.7 185.4 L582.6 175.3 L593.1 165.6 L603.2 155.8 L611.0 145.0 L615.2 132.2 L616.7 117.0 L618.2 100.0 L623.5 82.9 L635.7 68.1 L655.9 57.7 L683.0 52.7 L714.2 52.6 L746.0 55.5 L775.8 58.9 L802.7 60.6 L827.3 59.5 L851.1 56.3 L875.1 52.5 L900.0 50.0 L925.2 50.0 L949.8 53.0 L973.2 58.1 L995.4 64.3 L1016.6 70.6 L1037.0 77.1 L1056.1 84.1 L1073.1 92.6 L1087.0 102.7 L1097.7 114.0 L1106.6 125.2 L1116.6 134.7 L1131.2 141.4 L1152.8 145.4 L1181.4 147.8 L1214.5 150.2 L1247.2 154.5 L1274.3 161.9 L1292.1 172.4 L1299.8 185.0 L1299.9 198.7 L1296.6 212.2 L1294.2 225.1 L1295.4 237.6 L1300.0 250.0 Z" stroke-width="1.6"/><path d="M1334.4 250.0 L1342.8 263.9 L1349.2 278.4 L1350.8 293.0 L1346.4 307.3 L1337.2 321.0 L1324.9 334.1 L1311.2 346.7 L1296.0 358.8 L1277.9 369.9 L1255.2 379.0 L1227.0 385.3 L1194.4 388.2 L1160.4 388.7 L1128.9 388.3 L1102.8 389.5 L1083.2 394.4 L1069.0 403.7 L1056.8 416.6 L1043.2 430.8 L1025.7 443.4 L1003.7 452.0 L978.5 455.7 L951.9 455.3 L925.5 452.7 L900.0 450.2 L874.9 449.3 L849.3 450.5 L822.6 452.8 L794.8 454.9 L766.4 455.6 L738.1 454.5 L709.8 452.1 L681.1 449.1 L651.3 446.0 L620.5 442.3 L590.6 437.0 L564.5 428.6 L545.7 416.3 L536.6 400.3 L536.9 381.9 L543.7 363.1 L551.7 345.7 L555.5 331.1 L551.5 319.0 L539.5 308.6 L522.8 298.4 L506.3 287.5 L495.2 275.6 L492.3 262.8 L497.2 250.0 L507.3 237.6 L518.6 225.9 L528.4 214.6 L535.5 203.2 L540.9 191.7 L546.5 180.0 L553.7 168.5 L562.3 157.2 L571.0 145.6 L577.9 133.0 L581.9 118.4 L584.1 101.7 L587.3 83.5 L595.2 65.8 L610.7 50.9 L634.7 40.9 L665.6 36.9 L700.3 37.8 L735.0 41.6 L767.0 45.3 L795.5 46.6 L821.6 44.5 L846.9 40.0 L872.9 34.9 L900.0 31.6 L927.5 31.6 L954.3 35.2 L979.5 41.6 L1003.0 49.4 L1025.1 57.4 L1046.3 65.3 L1066.3 73.3 L1084.4 82.3 L1099.8 92.5 L1112.6 103.7 L1124.3 114.5 L1137.6 123.5 L1156.0 129.8 L1181.6 133.5 L1214.2 135.8 L1250.6 138.8 L1285.3 144.1 L1313.0 152.8 L1329.9 164.9 L1335.8 179.2 L1333.7 194.3 L1328.7 209.1 L1325.8 223.1 L1327.8 236.5 L1334.4 250.0 Z" stroke-width="0.8"/><path d="M1369.7 250.0 L1380.9 265.1 L1389.5 280.9 L1391.8 296.9 L1386.7 312.5 L1375.1 327.2 L1359.4 340.9 L1341.6 353.9 L1322.3 366.1 L1300.6 377.1 L1274.8 386.2 L1244.4 392.5 L1210.5 395.8 L1175.8 396.8 L1144.1 397.6 L1118.4 400.3 L1099.3 407.0 L1085.1 418.4 L1072.4 433.2 L1057.4 448.8 L1037.9 462.2 L1013.3 470.7 L985.3 473.6 L956.1 472.1 L927.5 468.4 L900.0 465.3 L873.0 464.6 L845.3 466.6 L816.0 470.2 L785.1 473.7 L753.5 475.5 L721.8 475.0 L690.6 472.5 L659.5 468.7 L628.1 464.3 L596.5 458.9 L566.5 451.6 L540.9 441.2 L523.1 426.9 L515.2 409.2 L516.5 389.3 L523.5 369.5 L530.8 351.5 L532.5 336.5 L525.5 324.1 L510.0 313.4 L490.0 302.6 L471.3 290.9 L459.6 277.8 L457.7 263.9 L464.9 250.0 L477.9 236.7 L491.8 224.2 L503.1 212.1 L510.3 200.0 L514.6 187.4 L518.2 174.4 L522.9 161.3 L529.4 148.1 L536.6 134.7 L542.8 120.3 L547.3 104.1 L550.9 86.1 L556.4 67.1 L567.4 49.0 L586.5 34.3 L614.5 25.0 L649.2 21.9 L687.1 23.8 L724.4 28.2 L758.3 31.9 L788.3 32.5 L815.8 29.2 L842.7 23.2 L870.7 16.9 L900.0 12.9 L929.8 13.1 L958.7 17.8 L985.5 25.9 L1010.1 35.5 L1033.1 45.2 L1054.9 54.4 L1075.9 63.1 L1095.4 72.3 L1112.9 82.3 L1128.3 92.9 L1143.2 103.0 L1160.3 111.4 L1182.7 117.3 L1212.3 120.8 L1248.5 123.4 L1287.5 127.0 L1323.6 133.6 L1351.2 143.8 L1366.8 157.6 L1370.5 173.6 L1366.4 190.1 L1360.1 206.1 L1357.3 221.1 L1360.7 235.5 L1369.7 250.0 Z" stroke-width="0.8"/><path d="M1406.3 250.0 L1420.3 266.4 L1430.8 283.5 L1433.5 300.9 L1426.9 317.6 L1412.1 333.2 L1392.2 347.4 L1369.9 360.5 L1346.3 372.7 L1321.0 383.6 L1292.8 392.7 L1260.8 399.3 L1226.2 403.1 L1191.5 405.2 L1160.3 407.3 L1135.1 411.8 L1116.5 420.5 L1102.2 433.9 L1088.6 450.4 L1072.0 467.3 L1050.1 481.0 L1022.8 489.1 L992.0 491.1 L960.2 488.3 L929.4 483.8 L900.0 480.4 L871.0 480.2 L841.0 483.4 L809.0 488.5 L774.9 493.5 L739.9 496.4 L705.0 496.3 L671.0 493.3 L637.9 488.4 L605.3 482.1 L573.5 474.7 L543.9 465.2 L519.2 452.8 L502.5 436.7 L495.4 417.3 L497.2 396.3 L503.8 375.7 L509.5 357.3 L508.7 342.1 L498.3 329.5 L479.2 318.4 L456.2 307.0 L435.9 294.3 L424.1 280.1 L423.9 265.0 L433.9 250.0 L449.8 235.8 L466.1 222.6 L478.4 209.8 L485.0 196.7 L487.3 183.0 L488.1 168.5 L490.0 153.5 L494.2 138.4 L500.0 123.1 L506.1 106.9 L511.6 89.3 L517.3 70.3 L525.8 50.8 L540.5 32.7 L563.6 18.5 L595.4 10.0 L633.7 7.8 L674.6 10.5 L714.1 15.2 L749.6 18.6 L781.0 18.2 L809.8 13.5 L838.3 6.0 L868.4 -1.5 L900.0 -5.8 L932.1 -5.1 L962.9 1.0 L991.2 11.0 L1016.8 22.6 L1040.3 34.0 L1062.9 44.2 L1085.0 53.4 L1106.4 62.3 L1126.4 71.6 L1145.1 81.3 L1163.7 90.6 L1184.8 98.3 L1211.3 103.8 L1244.7 107.4 L1283.9 110.6 L1324.8 115.2 L1361.6 123.1 L1388.6 135.1 L1402.4 150.5 L1404.0 168.1 L1398.0 186.1 L1391.0 203.2 L1388.9 219.1 L1394.3 234.4 L1406.3 250.0 Z" stroke-width="0.8"/><path d="M1444.3 250.0 L1461.1 267.7 L1473.1 286.2 L1475.5 304.9 L1466.4 322.7 L1447.7 339.0 L1422.9 353.5 L1395.6 366.6 L1367.8 378.6 L1339.4 389.4 L1309.3 398.7 L1276.6 405.8 L1242.1 410.6 L1208.0 414.0 L1177.6 417.8 L1153.2 424.3 L1134.8 435.0 L1120.2 450.2 L1105.4 468.2 L1086.8 485.9 L1062.2 499.6 L1032.0 507.1 L998.4 508.0 L964.2 504.1 L931.3 498.9 L900.0 495.5 L869.0 496.2 L836.6 500.9 L801.6 507.9 L764.2 514.5 L725.7 518.3 L687.6 518.2 L651.2 514.4 L616.6 507.7 L583.5 499.4 L551.9 489.6 L523.0 477.8 L499.4 463.3 L483.5 445.5 L477.0 425.0 L478.6 403.1 L484.1 382.0 L487.6 363.4 L483.7 347.9 L469.7 335.2 L447.2 323.6 L421.6 311.4 L400.3 297.7 L389.2 282.3 L391.2 266.0 L404.3 250.0 L423.1 235.0 L441.3 221.0 L453.9 207.5 L459.1 193.4 L458.6 178.3 L455.9 162.1 L454.6 145.2 L456.4 128.1 L461.3 110.8 L467.9 93.0 L475.3 74.3 L483.9 54.6 L496.1 34.9 L514.7 17.1 L541.9 3.6 L577.6 -4.0 L619.1 -5.4 L662.6 -2.3 L703.9 2.4 L740.8 5.1 L773.4 3.4 L803.5 -2.8 L833.9 -11.8 L866.0 -20.1 L900.0 -24.5 L934.3 -22.8 L967.0 -15.0 L996.5 -2.9 L1022.8 10.8 L1047.0 23.7 L1070.5 34.7 L1094.0 43.8 L1117.6 52.1 L1140.7 60.3 L1163.2 68.9 L1186.0 77.2 L1211.3 84.3 L1241.7 89.6 L1278.3 93.5 L1319.9 97.4 L1362.2 103.4 L1399.0 112.8 L1424.7 126.5 L1436.7 143.8 L1436.3 162.9 L1429.0 182.1 L1421.8 200.2 L1421.0 217.1 L1429.1 233.4 L1444.3 250.0 Z" stroke-width="0.8"/><path d="M558.1 720.0 L559.3 721.6 L559.2 723.2 L557.8 724.8 L555.5 726.2 L552.9 727.5 L550.8 728.7 L549.4 730.1 L549.0 731.7 L548.9 733.4 L548.6 735.3 L547.5 737.0 L545.2 738.4 L541.8 739.3 L537.6 739.7 L533.2 739.8 L528.9 739.7 L525.0 739.7 L521.4 739.7 L518.1 739.8 L514.9 739.9 L511.8 739.9 L508.7 739.9 L505.8 739.9 L502.9 740.2 L500.0 740.8 L496.9 741.5 L493.5 742.4 L489.9 743.0 L486.3 743.1 L483.0 742.6 L480.2 741.7 L477.7 740.5 L475.4 739.4 L472.8 738.6 L469.6 738.1 L465.7 738.0 L461.2 737.9 L456.6 737.6 L452.6 737.0 L449.3 736.0 L447.1 734.5 L445.7 732.9 L444.9 731.2 L444.5 729.5 L444.3 727.8 L444.4 726.2 L445.2 724.5 L446.5 722.9 L448.3 721.4 L450.1 720.0 L451.5 718.7 L452.1 717.4 L451.7 716.0 L450.9 714.5 L450.2 713.0 L450.4 711.5 L451.7 710.2 L454.3 709.1 L457.7 708.4 L461.2 707.8 L464.3 707.2 L466.5 706.4 L467.9 705.2 L468.8 703.6 L469.7 701.9 L471.0 700.2 L472.9 698.7 L475.4 697.4 L478.3 696.3 L481.5 695.4 L484.9 694.6 L488.5 693.9 L492.3 693.5 L496.1 693.5 L500.0 694.0 L503.7 694.8 L507.0 695.9 L510.1 697.0 L513.2 697.8 L516.4 698.1 L519.9 698.2 L523.7 698.2 L527.5 698.4 L530.7 699.0 L533.1 700.3 L534.5 701.9 L535.1 703.8 L535.4 705.6 L535.8 707.2 L536.7 708.4 L538.3 709.5 L540.4 710.4 L542.6 711.3 L544.9 712.3 L547.0 713.4 L549.0 714.5 L551.2 715.8 L553.7 717.1 L556.1 718.5 L558.1 720.0 Z" stroke-width="1.6"/><path d="M600.5 720.0 L602.0 722.8 L601.5 725.6 L598.9 728.2 L595.1 730.6 L590.9 732.8 L587.6 735.0 L585.7 737.5 L585.1 740.3 L585.1 743.4 L584.4 746.6 L582.2 749.5 L577.8 751.7 L571.5 753.0 L563.9 753.5 L556.0 753.4 L548.5 753.1 L541.9 753.0 L536.0 753.1 L530.6 753.4 L525.4 753.8 L520.2 754.2 L515.2 754.4 L510.1 754.8 L505.1 755.4 L500.0 756.4 L494.5 757.7 L488.7 758.9 L482.5 759.8 L476.4 759.8 L470.9 758.9 L466.0 757.2 L461.8 755.2 L457.7 753.4 L452.9 752.1 L447.1 751.6 L439.9 751.5 L431.9 751.4 L424.0 750.9 L417.0 749.7 L411.8 747.8 L408.5 745.2 L406.8 742.2 L406.1 739.1 L406.0 736.1 L406.0 733.2 L406.5 730.4 L407.5 727.6 L409.5 725.0 L412.0 722.4 L414.5 720.0 L416.3 717.7 L416.9 715.5 L416.2 713.1 L414.9 710.5 L414.0 707.9 L414.6 705.4 L417.4 703.2 L422.1 701.4 L428.0 700.2 L434.0 699.2 L438.9 698.1 L442.2 696.5 L444.2 694.2 L445.3 691.4 L446.7 688.2 L448.9 685.1 L452.3 682.4 L456.8 680.2 L462.1 678.5 L467.9 677.2 L474.0 676.1 L480.3 675.3 L486.8 674.8 L493.5 674.9 L500.0 675.8 L506.2 677.2 L512.0 679.0 L517.4 680.6 L522.7 681.7 L528.3 682.2 L534.5 682.2 L541.0 682.3 L547.3 682.7 L552.6 684.1 L556.4 686.4 L558.5 689.4 L559.2 692.7 L559.6 695.8 L560.3 698.4 L562.3 700.4 L565.6 702.0 L569.8 703.4 L574.4 704.8 L578.9 706.5 L582.9 708.3 L586.6 710.4 L590.3 712.5 L594.0 714.9 L597.6 717.3 L600.5 720.0 Z" stroke-width="0.8"/><path d="M642.8 720.0 L644.2 723.9 L643.1 727.8 L639.5 731.5 L634.4 734.9 L629.0 738.2 L624.8 741.4 L622.6 745.0 L622.0 749.1 L621.9 753.5 L620.7 758.0 L616.9 761.9 L610.0 764.8 L600.4 766.3 L589.1 766.7 L577.7 766.3 L567.1 765.8 L557.8 765.6 L549.9 765.9 L542.7 766.7 L535.8 767.7 L528.8 768.6 L521.7 769.4 L514.6 770.2 L507.4 771.1 L500.0 772.5 L492.1 774.1 L483.8 775.7 L475.1 776.5 L466.6 776.3 L458.8 774.9 L452.0 772.6 L445.8 769.9 L439.7 767.5 L432.6 766.0 L423.7 765.5 L413.1 765.5 L401.5 765.4 L390.2 764.7 L380.7 762.8 L373.9 759.7 L370.1 755.7 L368.7 751.3 L368.7 746.8 L369.1 742.4 L369.6 738.4 L370.2 734.4 L371.3 730.6 L373.3 726.9 L376.0 723.4 L378.8 720.0 L380.7 716.7 L381.2 713.5 L380.2 710.1 L378.7 706.5 L377.9 702.8 L379.4 699.3 L383.7 696.3 L390.7 694.0 L399.0 692.2 L407.1 690.8 L413.5 689.0 L417.6 686.5 L419.7 682.9 L420.9 678.5 L422.5 673.8 L425.6 669.2 L430.7 665.3 L437.5 662.4 L445.5 660.4 L454.2 658.9 L463.2 657.8 L472.3 657.0 L481.5 656.7 L490.8 657.0 L500.0 658.1 L508.7 660.0 L516.9 662.2 L524.6 664.2 L532.3 665.5 L540.4 666.1 L549.2 666.2 L558.3 666.4 L566.9 667.3 L574.0 669.5 L578.9 672.9 L581.4 677.3 L582.3 682.0 L582.7 686.4 L584.1 689.8 L587.5 692.5 L593.0 694.4 L600.1 696.2 L607.6 698.1 L614.6 700.3 L620.7 703.0 L625.9 706.0 L630.7 709.2 L635.2 712.6 L639.5 716.2 L642.8 720.0 Z" stroke-width="0.8"/><path d="M684.7 720.0 L685.9 725.1 L684.2 730.1 L679.8 734.9 L673.6 739.3 L667.4 743.6 L662.7 747.9 L660.3 752.7 L659.7 758.0 L659.3 763.8 L657.1 769.5 L651.4 774.3 L641.5 777.6 L628.2 779.2 L613.1 779.3 L598.1 778.5 L584.5 777.7 L573.1 777.6 L563.4 778.4 L554.7 779.9 L546.3 781.7 L537.6 783.4 L528.6 784.9 L519.3 786.1 L509.8 787.4 L500.0 789.0 L489.7 790.8 L478.9 792.4 L467.8 793.2 L456.9 792.7 L446.9 790.8 L438.0 787.9 L429.8 784.6 L421.4 782.0 L411.6 780.4 L399.5 779.9 L385.3 780.1 L370.1 779.9 L355.6 778.7 L343.9 776.0 L336.1 771.6 L332.4 766.1 L331.8 760.1 L332.9 754.1 L334.2 748.5 L335.0 743.2 L335.4 738.3 L336.1 733.5 L337.7 728.9 L340.1 724.4 L342.7 720.0 L344.5 715.8 L344.9 711.5 L343.8 707.1 L342.4 702.5 L342.2 697.8 L344.7 693.4 L350.8 689.6 L360.0 686.6 L370.5 684.4 L380.4 682.3 L387.8 679.8 L392.2 676.1 L394.1 671.1 L395.1 665.1 L397.1 658.6 L401.3 652.6 L408.3 647.7 L417.8 644.3 L428.8 642.1 L440.6 640.8 L452.5 639.9 L464.5 639.3 L476.4 639.1 L488.3 639.5 L500.0 640.8 L511.2 642.9 L521.8 645.4 L531.8 647.7 L542.0 649.2 L552.6 649.9 L563.9 650.1 L575.4 650.6 L586.1 652.1 L594.8 655.3 L600.5 660.0 L603.3 665.9 L604.2 671.9 L604.9 677.3 L607.4 681.5 L612.8 684.5 L621.1 686.7 L631.5 688.7 L642.3 691.0 L652.2 693.9 L660.2 697.4 L666.7 701.5 L672.1 705.8 L677.0 710.3 L681.4 715.1 L684.7 720.0 Z" stroke-width="0.8"/><path d="M725.9 720.0 L726.8 726.2 L724.8 732.3 L719.9 738.2 L713.2 743.7 L706.5 749.1 L701.4 754.6 L698.9 760.5 L698.0 767.2 L697.0 774.2 L693.3 780.9 L685.1 786.4 L671.9 790.0 L654.7 791.4 L635.7 791.1 L617.3 789.9 L601.0 789.0 L587.7 789.1 L576.6 790.6 L566.8 793.1 L557.0 796.0 L546.7 798.8 L535.6 800.9 L524.1 802.6 L512.2 804.2 L500.0 805.8 L487.3 807.6 L474.0 809.1 L460.5 809.7 L447.3 808.9 L435.0 806.6 L423.9 803.3 L413.5 799.7 L402.5 796.8 L389.8 795.3 L374.3 795.0 L356.5 795.2 L337.7 794.9 L320.5 793.1 L307.0 789.2 L298.8 783.4 L295.7 776.2 L296.5 768.5 L298.9 761.0 L301.0 754.1 L302.0 747.9 L301.8 742.0 L301.6 736.4 L302.1 730.8 L303.7 725.4 L305.9 720.0 L307.6 714.8 L308.1 709.5 L307.3 704.1 L306.4 698.5 L307.0 692.8 L310.9 687.6 L318.8 683.1 L330.0 679.5 L342.4 676.6 L353.5 673.9 L361.5 670.3 L365.8 665.4 L367.2 658.7 L368.0 650.9 L370.4 642.7 L376.0 635.3 L385.3 629.6 L397.8 625.9 L412.2 623.9 L427.2 623.0 L442.2 622.5 L456.9 622.2 L471.4 622.1 L485.8 622.5 L500.0 623.8 L513.7 625.9 L526.7 628.5 L539.2 631.0 L551.7 632.7 L564.8 633.5 L578.5 634.0 L592.3 635.0 L604.9 637.3 L614.8 641.6 L621.2 647.7 L624.2 655.0 L625.2 662.2 L626.6 668.5 L630.6 673.2 L638.6 676.4 L650.3 678.7 L664.5 680.8 L678.9 683.5 L691.5 687.1 L701.4 691.6 L708.6 696.8 L714.1 702.3 L718.8 708.0 L722.9 713.9 L725.9 720.0 Z" stroke-width="0.8"/><path d="M766.4 720.0 L767.2 727.3 L765.1 734.5 L760.2 741.5 L753.3 748.2 L746.4 754.7 L741.1 761.4 L738.2 768.6 L736.8 776.4 L734.6 784.5 L728.9 792.1 L717.8 798.1 L700.9 801.8 L679.8 802.9 L656.9 802.2 L635.3 800.7 L616.8 799.8 L602.0 800.4 L589.9 802.8 L579.1 806.6 L568.1 810.9 L556.1 814.7 L543.0 817.6 L529.1 819.7 L514.7 821.2 L500.0 822.7 L484.9 824.3 L469.2 825.6 L453.3 826.0 L437.8 825.0 L423.2 822.4 L409.7 818.8 L396.7 815.1 L383.0 812.2 L367.0 810.8 L348.1 810.6 L326.6 810.8 L304.7 810.1 L285.1 807.5 L270.5 802.3 L262.4 794.8 L260.6 785.8 L262.9 776.5 L266.8 767.6 L269.6 759.5 L270.3 752.3 L269.0 745.7 L267.2 739.2 L266.1 732.8 L266.7 726.4 L268.4 720.0 L270.2 713.7 L271.1 707.5 L271.0 701.1 L270.9 694.5 L272.7 688.0 L278.1 681.9 L287.6 676.7 L300.4 672.5 L314.1 668.9 L326.0 665.2 L334.1 660.5 L337.9 654.0 L338.8 645.6 L339.5 635.9 L342.6 626.1 L350.0 617.6 L362.0 611.3 L377.9 607.5 L395.8 605.9 L414.2 605.6 L432.3 605.7 L449.7 605.7 L466.6 605.6 L483.4 605.9 L500.0 606.9 L516.1 608.9 L531.6 611.5 L546.6 614.0 L561.6 616.0 L577.1 617.2 L593.0 618.2 L608.8 619.8 L622.9 623.1 L633.9 628.6 L640.8 636.0 L644.1 644.5 L645.6 652.8 L648.1 659.7 L654.2 664.7 L665.3 668.0 L681.0 670.2 L699.3 672.5 L717.4 675.7 L732.7 680.1 L743.9 685.7 L751.4 692.0 L756.3 698.8 L760.2 705.8 L763.7 712.8 L766.4 720.0 Z" stroke-width="1.6"/><path d="M806.1 720.0 L807.1 728.4 L805.5 736.7 L800.9 744.9 L794.2 752.7 L787.3 760.4 L781.7 768.3 L778.2 776.7 L775.7 785.7 L771.8 794.7 L763.5 803.0 L749.1 809.3 L728.3 812.9 L703.2 813.8 L676.8 812.6 L652.4 810.9 L632.1 810.2 L616.2 811.6 L603.4 815.2 L591.9 820.6 L579.7 826.3 L566.0 831.3 L550.6 834.9 L534.1 837.1 L517.2 838.5 L500.0 839.6 L482.5 840.8 L464.5 841.8 L446.3 842.1 L428.3 841.0 L411.3 838.4 L395.2 834.7 L379.4 831.0 L362.6 828.3 L343.3 827.0 L320.9 826.8 L296.0 826.8 L271.3 825.5 L249.9 821.8 L234.7 815.1 L227.4 805.8 L227.2 795.0 L231.4 784.0 L236.5 773.7 L239.7 764.7 L239.5 756.7 L236.5 749.3 L232.5 742.1 L229.6 734.8 L228.8 727.4 L230.1 720.0 L232.2 712.7 L234.0 705.4 L235.1 698.1 L236.3 690.7 L239.4 683.3 L246.2 676.4 L257.0 670.5 L271.0 665.4 L285.4 661.0 L297.6 656.3 L305.3 650.2 L308.4 642.1 L308.9 631.8 L309.6 620.3 L313.8 609.0 L323.4 599.4 L338.7 592.8 L358.2 589.4 L379.8 588.5 L401.7 588.9 L422.7 589.6 L442.7 589.7 L462.0 589.5 L481.0 589.4 L500.0 590.0 L518.6 591.7 L536.7 594.2 L554.2 596.9 L571.6 599.2 L589.2 601.0 L607.2 602.7 L624.7 605.2 L640.1 609.6 L651.9 616.2 L659.4 624.9 L663.2 634.5 L665.6 643.6 L669.7 650.9 L678.6 656.0 L693.4 659.1 L713.5 661.3 L736.1 663.8 L757.7 667.5 L775.2 672.8 L787.3 679.5 L794.4 687.2 L798.3 695.3 L801.0 703.5 L803.7 711.7 L806.1 720.0 Z" stroke-width="0.8"/><path d="M845.2 720.0 L846.8 729.5 L846.2 738.9 L842.4 748.3 L836.2 757.4 L829.2 766.4 L823.1 775.4 L818.5 785.0 L814.4 794.9 L808.1 804.7 L796.8 813.4 L778.7 819.9 L754.0 823.3 L725.0 823.8 L695.4 822.4 L668.8 820.7 L647.1 820.4 L630.5 822.9 L617.4 828.1 L605.2 835.1 L591.8 842.4 L576.2 848.6 L558.4 852.7 L539.3 854.9 L519.7 855.8 L500.0 856.4 L480.1 857.1 L459.8 857.8 L439.3 858.0 L418.8 857.0 L399.1 854.6 L380.2 851.2 L361.4 847.7 L341.3 845.1 L318.6 843.9 L292.8 843.6 L265.0 843.1 L237.9 840.9 L215.3 835.9 L200.2 827.5 L194.1 816.3 L195.7 803.7 L201.7 791.1 L207.9 779.6 L210.9 769.6 L209.2 760.9 L203.9 752.9 L197.2 745.0 L192.1 736.9 L190.1 728.4 L191.2 720.0 L194.1 711.7 L197.3 703.4 L200.0 695.2 L202.8 686.9 L207.2 678.8 L215.1 671.1 L226.8 664.3 L241.3 658.4 L255.9 652.9 L267.7 646.9 L274.8 639.3 L277.2 629.3 L277.3 617.2 L278.6 604.0 L284.3 591.4 L296.7 581.2 L315.5 574.6 L338.9 571.7 L364.4 571.6 L389.7 572.9 L413.5 574.1 L435.9 574.3 L457.4 573.7 L478.7 573.0 L500.0 573.0 L521.2 574.3 L541.8 576.7 L561.8 579.6 L581.5 582.5 L601.2 585.0 L620.9 587.7 L639.8 591.2 L656.4 596.7 L669.0 604.6 L677.2 614.3 L681.8 624.8 L685.6 634.4 L692.0 641.9 L704.2 646.8 L723.2 649.7 L747.9 651.8 L774.8 654.5 L799.7 658.9 L819.0 665.3 L831.2 673.4 L837.3 682.5 L839.7 691.9 L840.9 701.3 L842.8 710.7 L845.2 720.0 Z" stroke-width="0.8"/><path d="M883.9 720.0 L886.7 730.5 L887.5 741.2 L884.9 751.8 L879.3 762.2 L872.2 772.4 L865.1 782.6 L858.8 793.2 L852.3 803.9 L843.0 814.3 L828.3 823.3 L806.3 829.8 L777.8 833.0 L745.4 833.2 L713.1 831.6 L684.7 830.2 L662.3 830.8 L645.4 834.6 L632.0 841.6 L619.2 850.4 L604.4 859.3 L586.7 866.4 L566.4 870.8 L544.5 872.7 L522.2 873.0 L500.0 872.9 L477.8 873.0 L455.2 873.6 L432.3 873.9 L409.2 873.2 L386.6 871.2 L364.6 868.2 L342.5 865.1 L319.1 862.6 L293.0 861.3 L264.1 860.7 L233.7 859.5 L204.9 856.2 L181.8 849.5 L167.4 839.2 L162.8 826.2 L166.3 811.8 L173.9 797.7 L180.6 785.1 L182.8 774.4 L179.0 765.2 L170.7 756.6 L161.0 748.0 L153.6 739.0 L150.5 729.5 L151.9 720.0 L156.2 710.6 L161.3 701.5 L165.9 692.4 L170.3 683.3 L176.0 674.4 L184.5 665.9 L196.5 658.1 L210.8 651.1 L225.0 644.4 L236.1 636.9 L242.3 627.6 L244.2 615.9 L244.3 602.0 L246.5 587.2 L254.5 573.6 L270.0 563.0 L292.8 556.6 L320.3 554.6 L349.7 555.5 L378.2 557.6 L404.7 559.2 L429.2 559.2 L452.8 558.0 L476.3 556.4 L500.0 555.7 L523.7 556.5 L547.0 558.9 L569.4 562.3 L591.3 566.0 L612.8 569.5 L634.0 573.3 L654.1 578.1 L671.7 584.7 L685.3 593.5 L694.4 604.1 L700.3 615.1 L706.0 624.9 L715.4 632.4 L731.4 637.1 L755.0 639.7 L784.4 641.8 L815.4 644.9 L843.0 650.1 L863.4 657.7 L875.2 667.2 L879.7 677.8 L880.1 688.6 L879.9 699.2 L881.1 709.6 L883.9 720.0 Z" stroke-width="0.8"/><path d="M922.6 720.0 L927.1 731.6 L929.8 743.5 L928.7 755.4 L923.6 767.1 L915.9 778.6 L907.3 789.9 L898.6 801.3 L889.0 812.7 L876.2 823.5 L857.7 832.6 L832.0 839.0 L799.9 842.0 L764.5 842.1 L730.2 840.6 L700.7 839.7 L677.8 841.4 L661.0 846.9 L647.4 855.8 L633.8 866.5 L617.6 876.8 L597.6 884.7 L574.5 889.2 L549.7 890.5 L524.7 889.9 L500.0 889.0 L475.5 888.7 L450.7 889.2 L425.2 889.8 L399.4 889.8 L373.6 888.5 L348.2 886.1 L322.7 883.3 L295.9 880.9 L266.7 879.3 L235.1 878.0 L202.7 875.7 L172.9 871.0 L149.7 862.5 L136.4 850.4 L133.5 835.4 L138.9 819.3 L147.6 803.9 L154.3 790.5 L154.9 779.2 L148.3 769.5 L136.6 760.4 L123.8 751.1 L114.2 741.1 L110.4 730.6 L112.6 720.0 L118.7 709.6 L126.2 699.5 L133.1 689.7 L139.1 679.8 L145.6 670.1 L154.2 660.7 L165.7 651.8 L179.2 643.6 L192.3 635.4 L202.4 626.3 L207.8 615.3 L209.4 601.7 L210.0 586.2 L213.9 570.1 L224.6 555.7 L243.8 545.1 L270.7 539.3 L302.5 538.2 L335.7 540.1 L367.3 543.0 L396.1 544.7 L422.7 544.4 L448.2 542.3 L473.8 539.6 L500.0 538.0 L526.4 538.4 L552.2 540.9 L577.0 545.1 L600.8 549.8 L624.0 554.7 L646.4 559.7 L667.6 565.7 L686.1 573.3 L700.7 582.9 L711.2 594.0 L719.0 605.3 L727.3 615.1 L740.2 622.3 L760.5 626.6 L788.8 629.1 L822.8 631.2 L857.4 634.9 L887.2 641.0 L908.0 650.0 L918.7 661.1 L921.1 673.1 L919.4 685.3 L917.8 697.1 L918.8 708.6 L922.6 720.0 Z" stroke-width="0.8"/><path d="M961.5 720.0 L968.4 732.8 L973.4 745.9 L973.8 759.2 L969.0 772.2 L960.1 784.8 L949.2 797.1 L937.3 809.2 L924.0 821.0 L907.3 832.0 L884.9 841.2 L855.6 847.5 L820.4 850.4 L782.8 850.5 L747.0 849.4 L717.0 849.4 L694.1 852.6 L677.4 859.9 L663.7 870.8 L649.2 883.3 L631.1 894.9 L608.6 903.3 L582.6 907.5 L554.8 908.1 L527.1 906.5 L500.0 904.8 L473.3 904.1 L446.1 904.8 L418.1 906.1 L389.2 907.0 L360.1 906.6 L331.1 904.8 L302.0 902.3 L271.9 899.8 L239.9 897.6 L206.1 895.3 L172.3 891.6 L142.1 885.2 L119.4 874.9 L107.4 860.7 L106.3 843.9 L113.2 826.4 L122.5 809.9 L128.4 795.8 L126.8 784.0 L116.8 774.0 L101.3 764.4 L85.3 754.3 L73.9 743.3 L69.9 731.7 L73.5 720.0 L82.2 708.6 L92.4 697.7 L101.5 687.1 L108.9 676.5 L115.6 665.9 L123.6 655.4 L133.8 645.3 L145.8 635.6 L157.6 625.8 L166.5 615.0 L171.3 602.2 L173.1 587.0 L174.9 570.0 L181.0 552.9 L195.0 538.1 L218.3 527.7 L249.6 522.7 L285.6 522.6 L322.3 525.5 L356.7 528.9 L387.8 530.6 L416.2 529.5 L443.5 526.3 L471.3 522.5 L500.0 520.0 L529.0 520.0 L557.4 523.0 L584.5 528.1 L610.1 534.3 L634.5 540.6 L658.0 547.1 L680.1 554.1 L699.7 562.6 L715.8 572.7 L728.1 584.0 L738.3 595.2 L749.9 604.7 L766.8 611.4 L791.7 615.4 L824.7 617.8 L862.9 620.2 L900.7 624.5 L931.9 631.9 L952.4 642.4 L961.3 655.0 L961.4 668.7 L957.6 682.2 L954.9 695.1 L956.2 707.6 L961.5 720.0 Z" stroke-width="1.6"/><path d="M1001.2 720.0 L1010.9 733.9 L1018.3 748.4 L1020.1 763.0 L1015.1 777.3 L1004.4 791.0 L990.3 804.1 L974.5 816.7 L956.9 828.8 L936.0 839.9 L909.8 849.0 L877.3 855.3 L839.7 858.2 L800.5 858.7 L764.1 858.3 L733.9 859.5 L711.4 864.4 L695.0 873.7 L680.9 886.6 L665.2 900.8 L645.0 913.4 L619.7 922.0 L590.6 925.7 L559.8 925.3 L529.4 922.7 L500.0 920.2 L471.1 919.3 L441.5 920.5 L410.7 922.8 L378.6 924.9 L345.9 925.6 L313.2 924.5 L280.6 922.1 L247.4 919.1 L213.0 916.0 L177.5 912.3 L143.0 907.0 L112.9 898.6 L91.2 886.3 L80.7 870.3 L81.1 851.9 L88.9 833.1 L98.1 815.7 L102.5 801.1 L97.9 789.0 L84.1 778.6 L64.7 768.4 L45.8 757.5 L33.0 745.6 L29.5 732.8 L35.2 720.0 L46.8 707.6 L60.0 695.9 L71.2 684.6 L79.4 673.2 L85.7 661.7 L92.2 650.0 L100.4 638.5 L110.4 627.2 L120.4 615.6 L128.3 603.0 L133.0 588.4 L135.5 571.7 L139.2 553.5 L148.3 535.8 L166.1 520.9 L193.8 510.9 L229.6 506.9 L269.6 507.8 L309.6 511.6 L346.5 515.3 L379.5 516.6 L409.6 514.5 L438.8 510.0 L468.8 504.9 L500.0 501.6 L531.7 501.6 L562.6 505.2 L591.7 511.6 L618.8 519.4 L644.4 527.4 L668.8 535.3 L691.9 543.3 L712.8 552.3 L730.6 562.5 L745.3 573.7 L758.8 584.5 L774.2 593.5 L795.4 599.8 L825.0 603.5 L862.6 605.8 L904.5 608.8 L944.6 614.1 L976.5 622.8 L996.0 634.9 L1002.8 649.2 L1000.4 664.3 L994.7 679.1 L991.3 693.1 L993.6 706.5 L1001.2 720.0 Z" stroke-width="0.8"/><path d="M1042.0 720.0 L1054.9 735.1 L1064.8 750.9 L1067.5 766.9 L1061.6 782.5 L1048.2 797.2 L1030.1 810.9 L1009.6 823.9 L987.3 836.1 L962.2 847.1 L932.5 856.2 L897.4 862.5 L858.2 865.8 L818.2 866.8 L781.7 867.6 L752.0 870.3 L729.9 877.0 L713.6 888.4 L698.9 903.2 L681.7 918.8 L659.1 932.2 L630.8 940.7 L598.4 943.6 L564.7 942.1 L531.7 938.4 L500.0 935.3 L468.8 934.6 L436.8 936.6 L403.0 940.2 L367.5 943.7 L330.9 945.5 L294.4 945.0 L258.4 942.5 L222.5 938.7 L186.2 934.3 L149.8 928.9 L115.1 921.6 L85.7 911.2 L65.2 896.9 L56.0 879.2 L57.5 859.3 L65.6 839.5 L73.9 821.5 L76.0 806.5 L67.9 794.1 L50.0 783.4 L26.9 772.6 L5.4 760.9 L-8.2 747.8 L-10.4 733.9 L-2.0 720.0 L12.9 706.7 L29.0 694.2 L42.0 682.1 L50.4 670.0 L55.3 657.4 L59.4 644.4 L64.9 631.3 L72.4 618.1 L80.7 604.7 L87.9 590.3 L93.0 574.1 L97.2 556.1 L103.5 537.1 L116.2 519.0 L138.3 504.3 L170.5 495.0 L210.6 491.9 L254.4 493.8 L297.3 498.2 L336.5 501.9 L371.1 502.5 L402.8 499.2 L433.9 493.2 L466.2 486.9 L500.0 482.9 L534.4 483.1 L567.7 487.8 L598.7 495.9 L627.1 505.5 L653.5 515.2 L678.8 524.4 L702.9 533.1 L725.5 542.3 L745.6 552.3 L763.4 562.9 L780.6 573.0 L800.3 581.4 L826.2 587.3 L860.4 590.8 L902.1 593.4 L947.1 597.0 L988.8 603.6 L1020.6 613.8 L1038.6 627.6 L1042.9 643.6 L1038.1 660.1 L1030.9 676.1 L1027.6 691.1 L1031.6 705.5 L1042.0 720.0 Z" stroke-width="0.8"/><path d="M1084.2 720.0 L1100.4 736.4 L1112.5 753.5 L1115.6 770.9 L1107.9 787.6 L1090.9 803.2 L1067.9 817.4 L1042.1 830.5 L1014.9 842.7 L985.8 853.6 L953.2 862.7 L916.3 869.3 L876.3 873.1 L836.4 875.2 L800.3 877.3 L771.3 881.8 L749.8 890.5 L733.3 903.9 L717.7 920.4 L698.5 937.3 L673.2 951.0 L641.7 959.1 L606.1 961.1 L569.5 958.3 L533.9 953.8 L500.0 950.4 L466.6 950.2 L432.0 953.4 L395.0 958.5 L355.7 963.5 L315.2 966.4 L275.0 966.3 L235.8 963.3 L197.6 958.4 L160.0 952.1 L123.3 944.7 L89.1 935.2 L60.6 922.8 L41.3 906.7 L33.2 887.3 L35.2 866.3 L42.9 845.7 L49.5 827.3 L48.5 812.1 L36.5 799.5 L14.5 788.4 L-12.1 777.0 L-35.6 764.3 L-49.1 750.1 L-49.4 735.0 L-37.8 720.0 L-19.4 705.8 L-0.7 692.6 L13.5 679.8 L21.2 666.7 L23.9 653.0 L24.7 638.5 L26.9 623.5 L31.7 608.4 L38.5 593.1 L45.5 576.9 L51.8 559.3 L58.4 540.3 L68.3 520.8 L85.1 502.7 L111.8 488.5 L148.6 480.0 L192.8 477.8 L239.9 480.5 L285.5 485.2 L326.5 488.6 L362.6 488.2 L395.9 483.5 L428.9 476.0 L463.5 468.5 L500.0 464.2 L537.0 464.9 L572.6 471.0 L605.2 481.0 L634.7 492.6 L661.9 504.0 L688.0 514.2 L713.5 523.4 L738.1 532.3 L761.2 541.6 L782.8 551.3 L804.3 560.6 L828.7 568.3 L859.2 573.8 L897.7 577.4 L942.9 580.6 L990.2 585.2 L1032.7 593.1 L1063.7 605.1 L1079.7 620.5 L1081.6 638.1 L1074.7 656.1 L1066.6 673.2 L1064.1 689.1 L1070.4 704.4 L1084.2 720.0 Z" stroke-width="0.8"/><path d="M1128.0 720.0 L1147.4 737.7 L1161.3 756.2 L1164.0 774.9 L1153.6 792.7 L1132.0 809.0 L1103.3 823.5 L1071.9 836.6 L1039.8 848.6 L1007.0 859.4 L972.3 868.7 L934.6 875.8 L894.7 880.6 L855.4 884.0 L820.4 887.8 L792.2 894.3 L770.9 905.0 L754.0 920.2 L737.0 938.2 L715.5 955.9 L687.2 969.6 L652.3 977.1 L613.6 978.0 L574.1 974.1 L536.1 968.9 L500.0 965.5 L464.3 966.2 L426.9 970.9 L386.5 977.9 L343.3 984.5 L298.8 988.3 L254.9 988.2 L212.9 984.4 L173.0 977.7 L134.8 969.4 L98.3 959.6 L65.0 947.8 L37.7 933.3 L19.5 915.5 L11.9 895.0 L13.7 873.1 L20.1 852.0 L24.2 833.4 L19.6 817.9 L3.5 805.2 L-22.5 793.6 L-52.0 781.4 L-76.6 767.7 L-89.4 752.3 L-87.1 736.0 L-72.0 720.0 L-50.2 705.0 L-29.2 691.0 L-14.7 677.5 L-8.7 663.4 L-9.3 648.3 L-12.4 632.1 L-13.9 615.2 L-11.8 598.1 L-6.2 580.8 L1.5 563.0 L9.9 544.3 L19.9 524.6 L34.0 504.9 L55.5 487.1 L86.8 473.6 L127.9 466.0 L175.9 464.6 L226.1 467.7 L273.8 472.4 L316.3 475.1 L353.9 473.4 L388.7 467.2 L423.7 458.2 L460.8 449.9 L500.0 445.5 L539.6 447.2 L577.3 455.0 L611.3 467.1 L641.7 480.8 L669.7 493.7 L696.7 504.7 L723.9 513.8 L751.1 522.1 L777.8 530.3 L803.7 538.9 L830.0 547.2 L859.2 554.3 L894.2 559.6 L936.6 563.5 L984.5 567.4 L1033.3 573.4 L1075.7 582.8 L1105.4 596.5 L1119.2 613.8 L1118.8 632.9 L1110.3 652.1 L1102.1 670.2 L1101.2 687.1 L1110.5 703.4 L1128.0 720.0 Z" stroke-width="0.8"/><path d="M1488.8 700.0 L1489.5 702.0 L1489.5 704.0 L1488.5 705.9 L1487.0 707.6 L1485.3 709.2 L1483.8 710.7 L1483.0 712.4 L1482.6 714.4 L1482.6 716.5 L1482.4 718.8 L1481.7 720.9 L1480.1 722.6 L1477.9 723.7 L1475.1 724.3 L1472.1 724.4 L1469.3 724.3 L1466.6 724.2 L1464.3 724.3 L1462.1 724.4 L1459.9 724.5 L1457.9 724.5 L1455.8 724.4 L1453.9 724.5 L1452.0 724.8 L1450.0 725.5 L1447.9 726.5 L1445.7 727.5 L1443.3 728.3 L1440.9 728.4 L1438.7 727.9 L1436.8 726.7 L1435.2 725.2 L1433.6 723.8 L1431.9 722.8 L1429.7 722.3 L1427.1 722.1 L1424.1 722.0 L1421.1 721.7 L1418.4 720.9 L1416.2 719.6 L1414.7 717.9 L1413.8 715.9 L1413.3 713.8 L1413.0 711.7 L1412.8 709.7 L1413.0 707.6 L1413.4 705.6 L1414.3 703.6 L1415.5 701.7 L1416.8 700.0 L1417.7 698.4 L1418.0 696.8 L1417.8 695.1 L1417.3 693.3 L1416.8 691.4 L1416.9 689.5 L1417.8 687.9 L1419.5 686.6 L1421.8 685.7 L1424.2 685.0 L1426.2 684.2 L1427.6 683.2 L1428.6 681.7 L1429.2 679.9 L1429.8 677.8 L1430.7 675.7 L1432.0 673.8 L1433.6 672.2 L1435.6 670.8 L1437.7 669.7 L1439.9 668.7 L1442.3 667.9 L1444.8 667.4 L1447.4 667.4 L1450.0 667.9 L1452.4 669.0 L1454.7 670.4 L1456.7 671.7 L1458.8 672.6 L1460.9 673.1 L1463.3 673.1 L1465.8 673.1 L1468.3 673.4 L1470.5 674.2 L1472.1 675.7 L1473.0 677.7 L1473.4 680.0 L1473.6 682.3 L1473.8 684.2 L1474.5 685.8 L1475.5 687.0 L1476.9 688.2 L1478.4 689.3 L1479.9 690.5 L1481.3 691.9 L1482.7 693.3 L1484.2 694.8 L1485.8 696.4 L1487.4 698.1 L1488.8 700.0 Z" stroke-width="1.6"/><path d="M1517.0 700.0 L1518.0 703.4 L1517.6 706.8 L1516.0 710.1 L1513.4 713.0 L1510.6 715.8 L1508.4 718.5 L1507.1 721.5 L1506.7 724.9 L1506.7 728.8 L1506.3 732.7 L1504.8 736.3 L1501.9 739.0 L1497.7 740.6 L1492.6 741.2 L1487.3 741.1 L1482.4 740.8 L1477.9 740.6 L1474.0 740.8 L1470.4 741.2 L1466.9 741.7 L1463.5 742.1 L1460.1 742.4 L1456.8 742.8 L1453.4 743.5 L1450.0 744.8 L1446.4 746.4 L1442.4 747.9 L1438.3 748.9 L1434.3 749.0 L1430.6 747.8 L1427.3 745.8 L1424.5 743.3 L1421.8 741.1 L1418.6 739.6 L1414.7 738.9 L1409.9 738.7 L1404.6 738.7 L1399.3 738.1 L1394.7 736.6 L1391.2 734.2 L1389.0 731.0 L1387.9 727.3 L1387.4 723.6 L1387.3 719.9 L1387.3 716.3 L1387.6 712.8 L1388.4 709.4 L1389.6 706.1 L1391.3 703.0 L1393.0 700.0 L1394.2 697.2 L1394.6 694.4 L1394.2 691.5 L1393.3 688.3 L1392.7 685.1 L1393.1 682.0 L1394.9 679.3 L1398.1 677.2 L1402.0 675.6 L1406.0 674.4 L1409.2 673.0 L1411.5 671.1 L1412.8 668.3 L1413.6 664.8 L1414.4 660.9 L1415.9 657.0 L1418.2 653.7 L1421.2 651.0 L1424.7 648.9 L1428.6 647.3 L1432.7 646.0 L1436.9 644.9 L1441.2 644.4 L1445.6 644.5 L1450.0 645.6 L1454.1 647.3 L1458.0 649.5 L1461.6 651.5 L1465.1 652.9 L1468.9 653.5 L1473.0 653.5 L1477.3 653.5 L1481.5 654.2 L1485.1 655.8 L1487.6 658.6 L1489.0 662.3 L1489.5 666.4 L1489.7 670.2 L1490.2 673.4 L1491.5 675.9 L1493.7 677.8 L1496.5 679.5 L1499.6 681.3 L1502.6 683.3 L1505.3 685.6 L1507.7 688.1 L1510.2 690.8 L1512.7 693.7 L1515.1 696.7 L1517.0 700.0 Z" stroke-width="0.8"/><path d="M1545.2 700.0 L1546.1 704.8 L1545.4 709.6 L1543.0 714.2 L1539.6 718.4 L1536.0 722.4 L1533.2 726.4 L1531.7 730.8 L1531.3 735.8 L1531.3 741.3 L1530.5 746.8 L1527.9 751.6 L1523.4 755.1 L1516.9 757.0 L1509.4 757.5 L1501.8 757.0 L1494.7 756.4 L1488.6 756.1 L1483.3 756.5 L1478.5 757.5 L1473.9 758.7 L1469.2 759.9 L1464.5 760.8 L1459.7 761.7 L1454.9 762.9 L1450.0 764.6 L1444.8 766.6 L1439.2 768.5 L1433.4 769.6 L1427.7 769.3 L1422.5 767.6 L1418.0 764.7 L1413.9 761.4 L1409.8 758.5 L1405.0 756.7 L1399.2 756.0 L1392.1 756.0 L1384.4 755.9 L1376.8 755.0 L1370.5 752.6 L1365.9 748.9 L1363.4 744.0 L1362.5 738.5 L1362.5 733.0 L1362.8 727.6 L1363.1 722.6 L1363.5 717.8 L1364.2 713.1 L1365.5 708.5 L1367.4 704.2 L1369.2 700.0 L1370.5 696.0 L1370.8 692.0 L1370.1 687.8 L1369.1 683.4 L1368.6 678.8 L1369.6 674.5 L1372.5 670.8 L1377.1 667.9 L1382.7 665.8 L1388.1 664.0 L1392.3 661.8 L1395.1 658.7 L1396.4 654.4 L1397.2 649.0 L1398.3 643.1 L1400.4 637.5 L1403.8 632.7 L1408.3 629.1 L1413.7 626.6 L1419.5 624.8 L1425.4 623.5 L1431.5 622.5 L1437.7 622.0 L1443.9 622.4 L1450.0 623.8 L1455.8 626.1 L1461.2 628.8 L1466.4 631.3 L1471.5 633.0 L1476.9 633.7 L1482.8 633.8 L1488.8 634.0 L1494.6 635.1 L1499.4 637.8 L1502.6 642.1 L1504.3 647.5 L1504.8 653.3 L1505.1 658.6 L1506.1 662.9 L1508.3 666.1 L1512.0 668.5 L1516.7 670.7 L1521.7 673.0 L1526.4 675.8 L1530.5 679.1 L1533.9 682.8 L1537.1 686.7 L1540.2 690.9 L1543.0 695.3 L1545.2 700.0 Z" stroke-width="0.8"/><path d="M1573.1 700.0 L1573.9 706.2 L1572.8 712.4 L1569.9 718.3 L1565.8 723.8 L1561.6 729.0 L1558.5 734.4 L1556.9 740.2 L1556.5 746.8 L1556.2 753.9 L1554.7 760.9 L1550.9 766.8 L1544.3 770.9 L1535.5 772.8 L1525.4 772.9 L1515.4 772.0 L1506.4 771.0 L1498.7 770.9 L1492.2 771.8 L1486.5 773.7 L1480.9 776.0 L1475.1 778.1 L1469.0 779.8 L1462.8 781.4 L1456.5 783.0 L1450.0 784.9 L1443.1 787.2 L1435.9 789.1 L1428.5 790.1 L1421.3 789.5 L1414.6 787.2 L1408.7 783.5 L1403.2 779.6 L1397.6 776.3 L1391.0 774.3 L1383.0 773.8 L1373.6 773.9 L1363.4 773.8 L1353.8 772.3 L1345.9 768.9 L1340.7 763.5 L1338.2 756.7 L1337.9 749.3 L1338.6 741.9 L1339.4 735.0 L1340.0 728.6 L1340.3 722.5 L1340.8 716.7 L1341.8 710.9 L1343.4 705.4 L1345.1 700.0 L1346.4 694.8 L1346.6 689.6 L1345.9 684.1 L1344.9 678.4 L1344.8 672.6 L1346.5 667.2 L1350.6 662.6 L1356.7 658.9 L1363.7 656.2 L1370.3 653.7 L1375.2 650.5 L1378.1 646.0 L1379.4 639.9 L1380.1 632.4 L1381.4 624.4 L1384.2 617.0 L1388.9 611.0 L1395.2 606.8 L1402.5 604.1 L1410.4 602.5 L1418.4 601.4 L1426.3 600.7 L1434.3 600.4 L1442.2 600.9 L1450.0 602.5 L1457.5 605.1 L1464.5 608.2 L1471.2 611.0 L1478.0 612.9 L1485.0 613.7 L1492.6 614.0 L1500.3 614.5 L1507.4 616.4 L1513.2 620.3 L1517.0 626.2 L1518.9 633.4 L1519.5 640.8 L1520.0 647.4 L1521.6 652.6 L1525.2 656.3 L1530.8 659.0 L1537.7 661.4 L1544.9 664.3 L1551.4 667.9 L1556.8 672.2 L1561.1 677.2 L1564.7 682.5 L1568.0 688.1 L1570.9 693.9 L1573.1 700.0 Z" stroke-width="0.8"/><path d="M1600.6 700.0 L1601.2 707.6 L1599.9 715.1 L1596.6 722.4 L1592.1 729.2 L1587.6 735.8 L1584.3 742.5 L1582.6 749.9 L1582.0 758.1 L1581.3 766.7 L1578.9 774.9 L1573.4 781.7 L1564.6 786.1 L1553.2 787.9 L1540.5 787.5 L1528.2 786.1 L1517.4 784.9 L1508.5 785.1 L1501.1 786.9 L1494.5 790.0 L1488.0 793.6 L1481.1 797.0 L1473.8 799.6 L1466.1 801.7 L1458.1 803.6 L1450.0 805.6 L1441.5 807.8 L1432.7 809.7 L1423.7 810.4 L1414.9 809.5 L1406.7 806.6 L1399.3 802.5 L1392.3 798.1 L1385.0 794.5 L1376.5 792.6 L1366.2 792.3 L1354.3 792.5 L1341.8 792.2 L1330.3 789.9 L1321.3 785.2 L1315.8 778.0 L1313.8 769.1 L1314.3 759.7 L1315.9 750.5 L1317.4 742.0 L1318.0 734.3 L1317.9 727.1 L1317.7 720.2 L1318.0 713.3 L1319.1 706.6 L1320.6 700.0 L1321.8 693.5 L1322.1 687.1 L1321.6 680.4 L1320.9 673.5 L1321.3 666.6 L1324.0 660.1 L1329.2 654.5 L1336.6 650.1 L1344.9 646.6 L1352.3 643.2 L1357.7 638.9 L1360.5 632.8 L1361.5 624.6 L1362.0 614.9 L1363.6 604.9 L1367.3 595.8 L1373.6 588.8 L1381.9 584.2 L1391.4 581.7 L1401.5 580.6 L1411.5 580.0 L1421.3 579.6 L1431.0 579.5 L1440.6 580.0 L1450.0 581.6 L1459.1 584.2 L1467.8 587.4 L1476.1 590.4 L1484.5 592.5 L1493.2 593.6 L1502.4 594.2 L1511.5 595.4 L1519.9 598.3 L1526.5 603.5 L1530.8 611.0 L1532.8 619.9 L1533.5 628.9 L1534.4 636.6 L1537.1 642.4 L1542.4 646.3 L1550.2 649.1 L1559.7 651.8 L1569.3 655.1 L1577.7 659.6 L1584.3 665.1 L1589.1 671.4 L1592.7 678.2 L1595.8 685.3 L1598.6 692.5 L1600.6 700.0 Z" stroke-width="0.8"/><path d="M1627.6 700.0 L1628.1 709.0 L1626.8 717.9 L1623.4 726.5 L1618.9 734.7 L1614.2 742.7 L1610.7 750.9 L1608.8 759.8 L1607.9 769.4 L1606.4 779.4 L1602.6 788.7 L1595.2 796.1 L1584.0 800.6 L1569.8 802.1 L1554.6 801.2 L1540.2 799.3 L1527.9 798.2 L1518.0 798.9 L1509.9 801.9 L1502.7 806.6 L1495.4 811.8 L1487.4 816.6 L1478.7 820.2 L1469.4 822.7 L1459.8 824.6 L1450.0 826.4 L1439.9 828.4 L1429.5 830.0 L1418.9 830.5 L1408.5 829.2 L1398.8 826.1 L1389.8 821.6 L1381.2 817.0 L1372.0 813.5 L1361.4 811.7 L1348.7 811.5 L1334.4 811.8 L1319.8 810.9 L1306.7 807.6 L1297.0 801.3 L1291.6 792.1 L1290.4 781.0 L1292.0 769.5 L1294.5 758.5 L1296.4 748.6 L1296.8 739.8 L1296.0 731.6 L1294.8 723.7 L1294.1 715.8 L1294.4 707.8 L1295.6 700.0 L1296.8 692.3 L1297.4 684.6 L1297.3 676.7 L1297.3 668.6 L1298.5 660.6 L1302.1 653.1 L1308.4 646.7 L1316.9 641.5 L1326.1 637.1 L1334.0 632.6 L1339.4 626.8 L1341.9 618.8 L1342.6 608.5 L1343.0 596.5 L1345.1 584.4 L1350.0 573.9 L1358.0 566.2 L1368.6 561.6 L1380.5 559.6 L1392.8 559.2 L1404.8 559.3 L1416.4 559.3 L1427.8 559.2 L1439.0 559.5 L1450.0 560.8 L1460.8 563.3 L1471.1 566.5 L1481.1 569.6 L1491.1 572.0 L1501.4 573.5 L1512.0 574.7 L1522.5 576.7 L1531.9 580.8 L1539.2 587.5 L1543.9 596.7 L1546.1 607.1 L1547.1 617.3 L1548.7 625.8 L1552.8 632.0 L1560.2 635.9 L1570.7 638.7 L1582.9 641.6 L1594.9 645.4 L1605.1 650.9 L1612.6 657.7 L1617.6 665.6 L1620.9 673.9 L1623.5 682.5 L1625.8 691.2 L1627.6 700.0 Z" stroke-width="1.6"/><path d="M1654.1 700.0 L1654.7 710.3 L1653.7 720.6 L1650.6 730.6 L1646.2 740.3 L1641.5 749.8 L1637.8 759.5 L1635.5 769.8 L1633.8 780.8 L1631.2 792.0 L1625.7 802.1 L1616.1 809.9 L1602.2 814.4 L1585.4 815.4 L1567.9 814.0 L1551.6 811.9 L1538.0 811.0 L1527.4 812.7 L1518.9 817.2 L1511.2 823.8 L1503.1 830.8 L1494.0 837.0 L1483.7 841.4 L1472.8 844.2 L1461.5 845.9 L1450.0 847.3 L1438.3 848.7 L1426.3 850.0 L1414.2 850.3 L1402.2 848.9 L1390.8 845.7 L1380.1 841.2 L1369.6 836.7 L1358.4 833.3 L1345.5 831.7 L1330.6 831.5 L1314.0 831.5 L1297.5 829.9 L1283.2 825.3 L1273.2 817.0 L1268.3 805.6 L1268.1 792.3 L1270.9 778.8 L1274.4 766.1 L1276.5 755.0 L1276.3 745.1 L1274.3 736.1 L1271.7 727.2 L1269.7 718.2 L1269.2 709.1 L1270.1 700.0 L1271.5 691.0 L1272.7 682.1 L1273.4 673.0 L1274.2 663.9 L1276.3 654.8 L1280.8 646.4 L1288.0 639.0 L1297.3 632.8 L1307.0 627.4 L1315.0 621.6 L1320.2 614.1 L1322.3 604.1 L1322.6 591.4 L1323.1 577.3 L1325.9 563.3 L1332.3 551.6 L1342.4 543.5 L1355.4 539.3 L1369.9 538.1 L1384.5 538.7 L1398.5 539.5 L1411.8 539.7 L1424.6 539.4 L1437.4 539.3 L1450.0 540.1 L1462.4 542.1 L1474.4 545.2 L1486.1 548.5 L1497.7 551.3 L1509.5 553.5 L1521.5 555.6 L1533.1 558.7 L1543.4 564.1 L1551.3 572.3 L1556.3 583.0 L1558.8 594.8 L1560.4 606.0 L1563.2 615.0 L1569.0 621.2 L1578.9 625.1 L1592.3 627.7 L1607.4 630.8 L1621.8 635.3 L1633.5 641.9 L1641.5 650.2 L1646.3 659.7 L1648.9 669.7 L1650.7 679.7 L1652.4 689.8 L1654.1 700.0 Z" stroke-width="0.8"/><path d="M1680.1 700.0 L1681.2 711.6 L1680.8 723.3 L1678.3 734.8 L1674.1 746.0 L1669.5 757.0 L1665.4 768.2 L1662.4 779.9 L1659.6 792.2 L1655.4 804.3 L1647.9 815.0 L1635.8 823.0 L1619.3 827.2 L1600.0 827.8 L1580.3 826.0 L1562.5 823.9 L1548.1 823.6 L1537.0 826.6 L1528.3 833.1 L1520.1 841.7 L1511.2 850.7 L1500.8 858.2 L1488.9 863.3 L1476.2 866.0 L1463.1 867.2 L1450.0 867.9 L1436.7 868.7 L1423.2 869.6 L1409.5 869.8 L1395.9 868.6 L1382.7 865.6 L1370.1 861.4 L1357.6 857.1 L1344.2 854.0 L1329.1 852.4 L1311.9 852.1 L1293.3 851.5 L1275.3 848.9 L1260.2 842.6 L1250.2 832.3 L1246.1 818.5 L1247.2 803.0 L1251.2 787.5 L1255.3 773.3 L1257.3 761.0 L1256.2 750.4 L1252.6 740.6 L1248.2 730.8 L1244.7 720.7 L1243.4 710.4 L1244.1 700.0 L1246.1 689.7 L1248.2 679.6 L1250.0 669.5 L1251.8 659.3 L1254.8 649.3 L1260.0 639.8 L1267.9 631.4 L1277.5 624.1 L1287.3 617.4 L1295.1 610.0 L1299.8 600.6 L1301.5 588.4 L1301.5 573.5 L1302.4 557.2 L1306.2 541.7 L1314.4 529.1 L1327.0 521.0 L1342.6 517.4 L1359.6 517.4 L1376.5 519.0 L1392.4 520.4 L1407.2 520.7 L1421.6 519.9 L1435.8 519.1 L1450.0 519.1 L1464.1 520.6 L1477.9 523.6 L1491.2 527.2 L1504.3 530.8 L1517.5 533.9 L1530.6 537.1 L1543.2 541.5 L1554.2 548.3 L1562.7 557.9 L1568.1 569.9 L1571.2 582.8 L1573.7 594.6 L1578.0 603.8 L1586.1 609.9 L1598.8 613.5 L1615.3 616.1 L1633.2 619.4 L1649.8 624.8 L1662.6 632.6 L1670.8 642.6 L1674.9 653.8 L1676.4 665.4 L1677.3 677.0 L1678.5 688.5 L1680.1 700.0 Z" stroke-width="0.8"/><path d="M1705.9 700.0 L1707.8 713.0 L1708.3 726.1 L1706.6 739.2 L1702.9 751.9 L1698.1 764.5 L1693.4 777.1 L1689.2 790.1 L1684.9 803.3 L1678.7 816.1 L1668.8 827.2 L1654.2 835.2 L1635.2 839.1 L1613.6 839.4 L1592.1 837.4 L1573.2 835.6 L1558.2 836.4 L1546.9 841.1 L1538.0 849.6 L1529.4 860.5 L1519.6 871.4 L1507.8 880.2 L1494.3 885.6 L1479.7 888.0 L1464.8 888.3 L1450.0 888.1 L1435.2 888.4 L1420.2 889.0 L1404.8 889.4 L1389.5 888.6 L1374.4 886.1 L1359.7 882.4 L1345.0 878.5 L1329.4 875.5 L1312.0 873.9 L1292.7 873.2 L1272.5 871.7 L1253.3 867.6 L1237.8 859.4 L1228.2 846.8 L1225.2 830.7 L1227.6 812.9 L1232.6 795.6 L1237.1 780.1 L1238.5 767.0 L1236.0 755.6 L1230.4 745.1 L1224.0 734.5 L1219.1 723.3 L1217.0 711.7 L1217.9 700.0 L1220.8 688.5 L1224.2 677.2 L1227.3 666.0 L1230.2 654.9 L1234.0 643.9 L1239.7 633.4 L1247.7 623.8 L1257.2 615.2 L1266.7 606.9 L1274.0 597.7 L1278.2 586.3 L1279.5 571.9 L1279.5 554.8 L1281.0 536.6 L1286.3 519.8 L1296.7 506.7 L1311.8 498.9 L1330.2 496.4 L1349.8 497.5 L1368.8 500.1 L1386.5 502.0 L1402.8 502.1 L1418.5 500.6 L1434.2 498.7 L1450.0 497.7 L1465.8 498.7 L1481.3 501.7 L1496.3 505.9 L1510.8 510.4 L1525.2 514.8 L1539.4 519.5 L1552.8 525.3 L1564.5 533.4 L1573.5 544.3 L1579.6 557.3 L1583.5 570.9 L1587.4 583.0 L1593.6 592.1 L1604.2 597.9 L1620.0 601.2 L1639.6 603.7 L1660.2 607.5 L1678.7 613.9 L1692.3 623.3 L1700.1 635.0 L1703.1 648.0 L1703.4 661.3 L1703.2 674.4 L1704.1 687.2 L1705.9 700.0 Z" stroke-width="0.8"/><path d="M1731.7 700.0 L1734.8 714.3 L1736.5 729.0 L1735.8 743.6 L1732.4 758.0 L1727.3 772.1 L1721.5 786.0 L1715.7 800.0 L1709.3 814.1 L1700.8 827.3 L1688.5 838.6 L1671.3 846.5 L1649.9 850.2 L1626.4 850.2 L1603.5 848.4 L1583.8 847.3 L1568.6 849.4 L1557.3 856.2 L1548.3 867.1 L1539.2 880.3 L1528.4 893.0 L1515.1 902.7 L1499.6 908.2 L1483.1 909.9 L1466.4 909.2 L1450.0 908.0 L1433.7 907.6 L1417.1 908.2 L1400.2 909.0 L1382.9 909.0 L1365.8 907.4 L1348.8 904.4 L1331.8 900.9 L1313.9 898.0 L1294.5 896.0 L1273.4 894.5 L1251.8 891.7 L1231.9 885.8 L1216.5 875.4 L1207.6 860.4 L1205.7 842.0 L1209.2 822.2 L1215.1 803.3 L1219.5 786.8 L1219.9 772.9 L1215.5 760.9 L1207.7 749.8 L1199.2 738.3 L1192.8 726.0 L1190.3 713.1 L1191.7 700.0 L1195.8 687.2 L1200.8 674.8 L1205.4 662.7 L1209.4 650.6 L1213.7 638.6 L1219.4 627.0 L1227.1 616.1 L1236.1 605.9 L1244.9 595.9 L1251.6 584.7 L1255.2 571.1 L1256.3 554.5 L1256.7 535.3 L1259.3 515.5 L1266.4 497.8 L1279.2 484.7 L1297.2 477.6 L1318.4 476.2 L1340.4 478.6 L1361.5 482.1 L1380.8 484.3 L1398.5 483.9 L1415.5 481.3 L1432.5 478.0 L1450.0 476.0 L1467.6 476.5 L1484.8 479.6 L1501.3 484.7 L1517.2 490.6 L1532.6 496.5 L1547.6 502.8 L1561.7 510.1 L1574.1 519.4 L1583.8 531.3 L1590.8 545.0 L1596.0 558.8 L1601.6 570.9 L1610.1 579.7 L1623.6 585.1 L1642.6 588.1 L1665.2 590.8 L1688.3 595.2 L1708.1 602.8 L1722.0 613.8 L1729.1 627.4 L1730.7 642.3 L1729.6 657.3 L1728.5 671.9 L1729.2 685.9 L1731.7 700.0 Z" stroke-width="0.8"/><path d="M1757.7 700.0 L1762.3 715.7 L1765.6 731.9 L1765.9 748.2 L1762.7 764.2 L1756.8 779.7 L1749.5 794.9 L1741.5 809.7 L1732.7 824.3 L1721.5 837.9 L1706.6 849.1 L1687.0 856.9 L1663.6 860.5 L1638.5 860.6 L1614.7 859.3 L1594.6 859.3 L1579.4 863.2 L1568.3 872.1 L1559.1 885.6 L1549.5 901.0 L1537.4 915.2 L1522.4 925.6 L1505.0 930.8 L1486.6 931.5 L1468.1 929.6 L1450.0 927.4 L1432.2 926.6 L1414.1 927.4 L1395.4 929.0 L1376.1 930.1 L1356.7 929.6 L1337.4 927.5 L1318.0 924.4 L1298.0 921.2 L1276.6 918.6 L1254.1 915.7 L1231.5 911.3 L1211.4 903.3 L1196.3 890.6 L1188.3 873.2 L1187.6 852.5 L1192.1 830.9 L1198.3 810.7 L1202.3 793.3 L1201.2 778.8 L1194.5 766.4 L1184.2 754.6 L1173.5 742.2 L1165.9 728.7 L1163.3 714.4 L1165.7 700.0 L1171.5 686.0 L1178.3 672.5 L1184.3 659.5 L1189.2 646.4 L1193.7 633.4 L1199.0 620.5 L1205.9 608.1 L1213.9 596.2 L1221.7 584.1 L1227.7 570.8 L1230.9 555.0 L1232.1 536.3 L1233.3 515.4 L1237.3 494.3 L1246.7 476.1 L1262.2 463.3 L1283.1 457.1 L1307.1 457.0 L1331.5 460.6 L1354.5 464.8 L1375.2 466.9 L1394.1 465.6 L1412.4 461.6 L1430.9 456.9 L1450.0 453.8 L1469.4 453.9 L1488.3 457.5 L1506.3 463.8 L1523.4 471.4 L1539.7 479.2 L1555.3 487.1 L1570.1 495.8 L1583.2 506.2 L1593.8 518.7 L1602.0 532.6 L1608.9 546.3 L1616.6 558.1 L1627.8 566.4 L1644.4 571.3 L1666.5 574.2 L1692.0 577.2 L1717.1 582.5 L1737.9 591.6 L1751.6 604.5 L1757.5 620.1 L1757.6 636.8 L1755.1 653.4 L1753.2 669.4 L1754.1 684.7 L1757.7 700.0 Z" stroke-width="1.6"/><path d="M1784.2 700.0 L1790.6 717.1 L1795.6 734.9 L1796.7 752.9 L1793.4 770.5 L1786.3 787.4 L1776.9 803.5 L1766.3 819.1 L1754.6 834.0 L1740.7 847.6 L1723.2 858.8 L1701.5 866.5 L1676.5 870.1 L1650.3 870.7 L1626.0 870.2 L1606.0 871.7 L1591.0 877.7 L1580.0 889.1 L1570.6 905.0 L1560.1 922.5 L1546.7 938.0 L1529.8 948.6 L1510.4 953.2 L1489.9 952.7 L1469.6 949.4 L1450.0 946.4 L1430.7 945.3 L1411.0 946.8 L1390.5 949.6 L1369.1 952.2 L1347.2 953.0 L1325.5 951.7 L1303.7 948.7 L1281.6 945.1 L1258.7 941.2 L1235.0 936.7 L1212.0 930.2 L1191.9 919.9 L1177.5 904.7 L1170.4 885.0 L1170.7 862.3 L1175.9 839.1 L1182.1 817.8 L1185.0 799.8 L1181.9 784.9 L1172.7 772.1 L1159.8 759.6 L1147.2 746.2 L1138.6 731.5 L1136.4 715.8 L1140.2 700.0 L1147.9 684.8 L1156.6 670.4 L1164.1 656.4 L1169.6 642.4 L1173.8 628.2 L1178.1 613.9 L1183.6 599.7 L1190.3 585.8 L1196.9 571.5 L1202.2 556.0 L1205.3 538.1 L1207.0 517.5 L1209.5 495.1 L1215.5 473.3 L1227.4 454.9 L1245.9 442.7 L1269.7 437.7 L1296.4 438.9 L1323.0 443.5 L1347.7 448.0 L1369.6 449.6 L1389.7 447.1 L1409.2 441.5 L1429.2 435.3 L1450.0 431.2 L1471.1 431.2 L1491.7 435.7 L1511.1 443.6 L1529.2 453.2 L1546.3 463.0 L1562.5 472.6 L1577.9 482.5 L1591.9 493.6 L1603.7 506.2 L1613.6 519.9 L1622.5 533.2 L1632.8 544.3 L1646.9 552.1 L1666.7 556.6 L1691.7 559.5 L1719.7 563.1 L1746.4 569.6 L1767.7 580.4 L1780.7 595.3 L1785.2 612.9 L1783.6 631.5 L1779.8 649.7 L1777.6 666.9 L1779.1 683.4 L1784.2 700.0 Z" stroke-width="0.8"/><path d="M1811.3 700.0 L1819.9 718.6 L1826.5 738.1 L1828.3 757.7 L1824.4 776.9 L1815.5 795.0 L1803.4 811.9 L1789.7 827.9 L1774.9 842.9 L1758.1 856.4 L1738.3 867.6 L1715.0 875.3 L1688.8 879.4 L1662.1 880.7 L1637.8 881.6 L1618.0 885.0 L1603.3 893.2 L1592.4 907.2 L1582.6 925.4 L1571.1 944.7 L1556.1 961.1 L1537.2 971.6 L1515.6 975.2 L1493.2 973.3 L1471.1 968.8 L1450.0 965.0 L1429.2 964.2 L1407.9 966.6 L1385.4 971.1 L1361.6 975.3 L1337.3 977.5 L1313.0 976.9 L1288.9 973.8 L1265.0 969.2 L1240.8 963.7 L1216.5 957.1 L1193.4 948.1 L1173.8 935.3 L1160.1 917.8 L1154.0 895.9 L1155.0 871.5 L1160.4 847.0 L1166.0 824.9 L1167.3 806.4 L1161.9 791.2 L1150.0 778.0 L1134.6 764.8 L1120.3 750.3 L1111.2 734.2 L1109.7 717.1 L1115.3 700.0 L1125.3 683.7 L1136.0 668.3 L1144.7 653.4 L1150.3 638.4 L1153.5 622.9 L1156.3 607.0 L1159.9 590.8 L1164.9 574.6 L1170.5 558.1 L1175.3 540.3 L1178.7 520.4 L1181.4 498.2 L1185.7 474.8 L1194.1 452.6 L1208.9 434.5 L1230.4 423.1 L1257.1 419.3 L1286.3 421.6 L1314.9 427.0 L1341.0 431.6 L1364.1 432.3 L1385.2 428.3 L1405.9 420.9 L1427.4 413.1 L1450.0 408.2 L1472.9 408.5 L1495.1 414.2 L1515.8 424.1 L1534.7 436.0 L1552.4 448.0 L1569.2 459.2 L1585.3 470.0 L1600.3 481.3 L1613.7 493.6 L1625.6 506.6 L1637.1 519.1 L1650.2 529.4 L1667.5 536.6 L1690.3 541.0 L1718.1 544.2 L1748.1 548.7 L1775.9 556.7 L1797.1 569.3 L1809.1 586.3 L1811.9 605.9 L1808.7 626.3 L1803.9 646.0 L1801.7 664.5 L1804.4 682.2 L1811.3 700.0 Z" stroke-width="0.8"/><path d="M1839.5 700.0 L1850.2 720.1 L1858.3 741.3 L1860.4 762.6 L1855.3 783.2 L1844.0 802.4 L1828.6 819.9 L1811.4 836.1 L1793.3 851.0 L1773.9 864.4 L1752.1 875.6 L1727.6 883.7 L1700.9 888.5 L1674.2 891.0 L1650.2 893.6 L1630.9 899.2 L1616.5 909.9 L1605.5 926.3 L1595.1 946.7 L1582.3 967.4 L1565.5 984.3 L1544.4 994.3 L1520.7 996.7 L1496.3 993.3 L1472.6 987.7 L1450.0 983.5 L1427.7 983.3 L1404.6 987.2 L1380.0 993.6 L1353.8 999.7 L1326.8 1003.3 L1300.0 1003.1 L1273.9 999.5 L1248.4 993.4 L1223.3 985.7 L1198.8 976.5 L1176.1 964.9 L1157.1 949.6 L1144.2 929.7 L1138.8 906.0 L1140.1 880.1 L1145.2 854.7 L1149.6 832.1 L1149.0 813.3 L1141.0 797.9 L1126.3 784.1 L1108.6 770.1 L1093.0 754.5 L1083.9 737.0 L1083.7 718.4 L1091.5 700.0 L1103.7 682.6 L1116.2 666.3 L1125.7 650.5 L1130.8 634.4 L1132.6 617.5 L1133.2 599.6 L1134.6 581.3 L1137.8 562.7 L1142.3 543.8 L1147.0 523.9 L1151.2 502.3 L1155.6 478.9 L1162.2 454.8 L1173.4 432.5 L1191.2 415.0 L1215.7 404.7 L1245.2 402.0 L1276.6 405.3 L1307.0 411.0 L1334.3 415.2 L1358.4 414.7 L1380.6 408.9 L1402.6 399.6 L1425.7 390.5 L1450.0 385.1 L1474.7 386.1 L1498.4 393.5 L1520.2 405.8 L1539.8 420.1 L1558.0 434.2 L1575.3 446.7 L1592.3 458.0 L1608.8 469.0 L1624.1 480.5 L1638.5 492.4 L1652.8 503.8 L1669.1 513.3 L1689.5 520.1 L1715.1 524.5 L1745.3 528.4 L1776.8 534.1 L1805.1 543.8 L1825.8 558.5 L1836.5 577.6 L1837.7 599.2 L1833.1 621.3 L1827.7 642.4 L1826.0 662.0 L1830.3 680.9 L1839.5 700.0 Z" stroke-width="0.8"/><path d="M1868.7 700.0 L1881.6 721.7 L1890.9 744.6 L1892.7 767.6 L1885.7 789.5 L1871.3 809.5 L1852.2 827.4 L1831.2 843.5 L1809.8 858.3 L1788.0 871.6 L1764.9 883.0 L1739.7 891.7 L1713.1 897.7 L1686.9 901.9 L1663.6 906.5 L1644.8 914.5 L1630.6 927.7 L1619.4 946.4 L1608.0 968.6 L1593.7 990.3 L1574.8 1007.2 L1551.6 1016.4 L1525.7 1017.5 L1499.4 1012.8 L1474.1 1006.3 L1450.0 1002.2 L1426.2 1003.0 L1401.2 1008.8 L1374.3 1017.4 L1345.5 1025.5 L1315.9 1030.2 L1286.6 1030.1 L1258.6 1025.4 L1232.0 1017.2 L1206.5 1006.9 L1182.2 994.9 L1160.0 980.4 L1141.8 962.5 L1129.7 940.7 L1124.6 915.3 L1125.8 888.4 L1130.0 862.4 L1132.8 839.5 L1129.8 820.6 L1119.0 804.8 L1101.7 790.5 L1082.0 775.6 L1065.6 758.7 L1057.1 739.7 L1058.6 719.7 L1068.7 700.0 L1083.2 681.5 L1097.2 664.3 L1106.8 647.6 L1110.9 630.3 L1110.5 611.7 L1108.4 591.8 L1107.4 571.0 L1108.8 549.9 L1112.6 528.7 L1117.6 506.8 L1123.3 483.8 L1129.9 459.6 L1139.3 435.3 L1153.6 413.4 L1174.5 396.7 L1202.0 387.3 L1234.0 385.6 L1267.4 389.5 L1299.2 395.2 L1327.6 398.5 L1352.6 396.5 L1375.8 388.8 L1399.1 377.8 L1423.9 367.5 L1450.0 362.2 L1476.4 364.3 L1501.5 373.8 L1524.2 388.7 L1544.5 405.6 L1563.1 421.5 L1581.1 435.0 L1599.2 446.3 L1617.4 456.4 L1635.2 466.6 L1652.5 477.1 L1670.0 487.3 L1689.5 496.0 L1712.8 502.6 L1741.0 507.4 L1773.0 512.2 L1805.5 519.5 L1833.8 531.2 L1853.6 548.1 L1862.8 569.2 L1862.5 592.8 L1856.9 616.4 L1851.4 638.7 L1850.8 659.5 L1857.0 679.5 L1868.7 700.0 Z" stroke-width="0.8"/><path d="M184.9 120.0 L185.6 121.9 L185.5 123.7 L184.7 125.5 L183.3 127.1 L181.8 128.6 L180.5 130.1 L179.7 131.6 L179.4 133.5 L179.3 135.5 L179.2 137.7 L178.5 139.6 L177.1 141.2 L175.1 142.3 L172.6 142.7 L169.9 142.8 L167.3 142.8 L165.0 142.7 L162.8 142.8 L160.9 142.9 L158.9 142.9 L157.1 142.9 L155.2 142.9 L153.5 143.0 L151.8 143.3 L150.0 143.9 L148.1 144.9 L146.1 145.8 L143.9 146.5 L141.8 146.7 L139.8 146.1 L138.1 145.0 L136.6 143.7 L135.3 142.4 L133.7 141.4 L131.8 140.9 L129.4 140.7 L126.7 140.7 L124.0 140.4 L121.5 139.6 L119.6 138.4 L118.3 136.8 L117.4 134.9 L117.0 133.0 L116.7 131.0 L116.6 129.1 L116.7 127.1 L117.1 125.2 L117.9 123.4 L119.0 121.6 L120.1 120.0 L120.9 118.5 L121.2 117.0 L121.0 115.4 L120.5 113.7 L120.1 111.9 L120.2 110.2 L121.0 108.6 L122.6 107.4 L124.6 106.6 L126.7 105.9 L128.6 105.2 L129.9 104.3 L130.7 102.9 L131.3 101.1 L131.8 99.2 L132.6 97.2 L133.8 95.4 L135.3 93.9 L137.0 92.6 L138.9 91.6 L141.0 90.6 L143.1 89.9 L145.4 89.4 L147.7 89.4 L150.0 89.9 L152.2 91.0 L154.2 92.2 L156.1 93.5 L157.9 94.3 L159.8 94.8 L162.0 94.8 L164.2 94.8 L166.5 95.0 L168.4 95.8 L169.9 97.2 L170.7 99.1 L171.1 101.3 L171.2 103.4 L171.5 105.2 L172.0 106.7 L173.0 107.9 L174.2 108.9 L175.6 110.0 L176.9 111.1 L178.2 112.4 L179.4 113.7 L180.7 115.1 L182.2 116.6 L183.7 118.2 L184.9 120.0 Z" stroke-width="1.6"/><path d="M210.3 120.0 L211.2 123.2 L210.9 126.4 L209.4 129.4 L207.0 132.2 L204.6 134.8 L202.5 137.3 L201.4 140.2 L201.1 143.4 L201.0 147.0 L200.7 150.7 L199.3 154.0 L196.7 156.5 L192.9 158.1 L188.3 158.6 L183.6 158.5 L179.1 158.2 L175.1 158.1 L171.6 158.2 L168.3 158.6 L165.2 159.1 L162.1 159.4 L159.1 159.7 L156.1 160.1 L153.1 160.8 L150.0 162.0 L146.7 163.5 L143.2 164.9 L139.5 165.9 L135.9 165.9 L132.5 164.8 L129.6 162.9 L127.1 160.6 L124.6 158.5 L121.8 157.1 L118.2 156.4 L113.9 156.3 L109.2 156.2 L104.4 155.7 L100.2 154.3 L97.1 152.0 L95.1 149.0 L94.1 145.6 L93.7 142.1 L93.6 138.6 L93.6 135.3 L93.9 132.0 L94.5 128.8 L95.7 125.7 L97.2 122.8 L98.7 120.0 L99.8 117.4 L100.2 114.8 L99.7 112.0 L98.9 109.1 L98.4 106.0 L98.8 103.1 L100.4 100.6 L103.3 98.6 L106.8 97.2 L110.4 96.0 L113.3 94.7 L115.3 92.9 L116.5 90.3 L117.2 87.0 L118.0 83.3 L119.3 79.7 L121.4 76.6 L124.1 74.1 L127.3 72.1 L130.7 70.6 L134.4 69.4 L138.2 68.4 L142.1 67.9 L146.1 68.0 L150.0 69.0 L153.7 70.6 L157.2 72.7 L160.4 74.5 L163.6 75.8 L167.0 76.4 L170.7 76.4 L174.6 76.5 L178.4 77.0 L181.6 78.6 L183.8 81.2 L185.1 84.7 L185.5 88.5 L185.7 92.0 L186.2 95.0 L187.4 97.4 L189.3 99.2 L191.9 100.8 L194.7 102.5 L197.3 104.4 L199.8 106.5 L202.0 108.9 L204.2 111.4 L206.4 114.1 L208.6 116.9 L210.3 120.0 Z" stroke-width="0.8"/><path d="M235.7 120.0 L236.5 124.5 L235.9 129.0 L233.7 133.3 L230.6 137.2 L227.4 141.0 L224.9 144.7 L223.5 148.8 L223.2 153.5 L223.1 158.7 L222.4 163.8 L220.2 168.4 L216.0 171.7 L210.2 173.5 L203.5 173.9 L196.6 173.4 L190.2 172.8 L184.7 172.6 L179.9 173.0 L175.6 173.9 L171.5 175.1 L167.3 176.1 L163.0 177.0 L158.8 177.9 L154.5 179.0 L150.0 180.6 L145.3 182.5 L140.3 184.2 L135.1 185.2 L130.0 185.0 L125.3 183.4 L121.2 180.6 L117.5 177.5 L113.8 174.8 L109.5 173.1 L104.2 172.5 L97.9 172.5 L90.9 172.4 L84.1 171.5 L78.4 169.3 L74.3 165.8 L72.1 161.2 L71.2 156.1 L71.2 150.9 L71.5 145.9 L71.8 141.2 L72.1 136.7 L72.8 132.3 L74.0 128.0 L75.6 123.9 L77.3 120.0 L78.4 116.2 L78.7 112.5 L78.1 108.6 L77.2 104.4 L76.7 100.2 L77.6 96.1 L80.2 92.6 L84.4 89.9 L89.4 88.0 L94.3 86.3 L98.1 84.2 L100.6 81.3 L101.8 77.2 L102.5 72.2 L103.5 66.7 L105.4 61.4 L108.4 56.9 L112.5 53.6 L117.3 51.2 L122.5 49.5 L127.9 48.3 L133.4 47.3 L138.9 46.9 L144.5 47.3 L150.0 48.6 L155.2 50.7 L160.1 53.3 L164.7 55.6 L169.4 57.2 L174.2 57.8 L179.5 57.9 L185.0 58.1 L190.1 59.2 L194.4 61.7 L197.3 65.7 L198.9 70.8 L199.4 76.2 L199.6 81.2 L200.5 85.2 L202.5 88.2 L205.8 90.5 L210.0 92.5 L214.5 94.7 L218.8 97.3 L222.4 100.4 L225.5 103.8 L228.4 107.5 L231.1 111.5 L233.7 115.6 L235.7 120.0 Z" stroke-width="0.8"/><path d="M260.8 120.0 L261.5 125.8 L260.5 131.6 L257.9 137.1 L254.2 142.3 L250.4 147.2 L247.6 152.2 L246.2 157.7 L245.8 163.9 L245.6 170.5 L244.2 177.1 L240.8 182.6 L234.9 186.4 L226.9 188.3 L217.9 188.4 L208.8 187.5 L200.7 186.6 L193.8 186.4 L188.0 187.3 L182.8 189.1 L177.8 191.2 L172.6 193.2 L167.1 194.9 L161.6 196.3 L155.9 197.8 L150.0 199.6 L143.8 201.7 L137.3 203.6 L130.7 204.5 L124.1 203.9 L118.1 201.7 L112.8 198.3 L107.9 194.6 L102.8 191.5 L96.9 189.7 L89.7 189.1 L81.2 189.3 L72.1 189.2 L63.4 187.8 L56.3 184.6 L51.7 179.5 L49.4 173.2 L49.1 166.2 L49.7 159.3 L50.5 152.8 L51.0 146.8 L51.3 141.1 L51.7 135.6 L52.6 130.3 L54.0 125.0 L55.6 120.0 L56.7 115.1 L56.9 110.2 L56.3 105.1 L55.4 99.8 L55.3 94.4 L56.8 89.3 L60.5 84.9 L66.0 81.5 L72.3 78.9 L78.2 76.6 L82.7 73.6 L85.3 69.4 L86.5 63.6 L87.1 56.6 L88.2 49.2 L90.8 42.2 L95.0 36.6 L100.7 32.6 L107.3 30.1 L114.4 28.6 L121.5 27.6 L128.7 26.9 L135.8 26.6 L143.0 27.1 L150.0 28.6 L156.7 31.0 L163.1 33.9 L169.1 36.5 L175.2 38.3 L181.5 39.1 L188.3 39.3 L195.2 39.9 L201.7 41.6 L206.9 45.3 L210.3 50.8 L212.0 57.5 L212.5 64.5 L213.0 70.7 L214.4 75.6 L217.7 79.0 L222.7 81.6 L228.9 83.9 L235.4 86.5 L241.3 89.9 L246.1 94.0 L250.0 98.6 L253.2 103.6 L256.2 108.8 L258.8 114.3 L260.8 120.0 Z" stroke-width="0.8"/><path d="M285.5 120.0 L286.1 127.1 L284.9 134.2 L281.9 141.0 L277.9 147.4 L273.9 153.5 L270.9 159.9 L269.3 166.8 L268.8 174.4 L268.2 182.5 L266.0 190.2 L261.1 196.6 L253.2 200.7 L242.8 202.4 L231.4 202.0 L220.4 200.7 L210.6 199.6 L202.6 199.7 L196.0 201.4 L190.1 204.3 L184.2 207.7 L178.0 210.9 L171.4 213.4 L164.5 215.3 L157.3 217.1 L150.0 219.0 L142.4 221.1 L134.4 222.8 L126.3 223.5 L118.4 222.6 L111.0 220.0 L104.4 216.1 L98.1 211.9 L91.5 208.6 L83.9 206.9 L74.6 206.5 L63.9 206.8 L52.6 206.4 L42.3 204.3 L34.2 199.8 L29.3 193.1 L27.4 184.8 L27.9 175.9 L29.3 167.3 L30.6 159.4 L31.2 152.2 L31.1 145.4 L30.9 138.9 L31.2 132.5 L32.2 126.2 L33.5 120.0 L34.6 113.9 L34.9 107.9 L34.4 101.6 L33.8 95.1 L34.2 88.6 L36.6 82.6 L41.3 77.4 L48.0 73.3 L55.4 70.0 L62.1 66.8 L66.9 62.7 L69.5 57.0 L70.3 49.3 L70.8 40.2 L72.2 30.8 L75.6 22.3 L81.2 15.7 L88.7 11.4 L97.3 9.1 L106.3 8.0 L115.3 7.5 L124.2 7.1 L132.9 7.0 L141.5 7.5 L150.0 9.0 L158.2 11.5 L166.0 14.5 L173.5 17.3 L181.0 19.2 L188.9 20.2 L197.1 20.8 L205.4 21.9 L212.9 24.6 L218.9 29.5 L222.7 36.6 L224.5 44.9 L225.1 53.3 L226.0 60.5 L228.4 66.0 L233.1 69.7 L240.2 72.3 L248.7 74.8 L257.3 77.9 L264.9 82.1 L270.8 87.3 L275.2 93.2 L278.5 99.6 L281.3 106.2 L283.7 113.0 L285.5 120.0 Z" stroke-width="0.8"/><path d="M309.8 120.0 L310.3 128.4 L309.1 136.7 L306.1 144.8 L302.0 152.5 L297.8 160.0 L294.7 167.7 L292.9 176.1 L292.1 185.1 L290.8 194.4 L287.4 203.2 L280.7 210.1 L270.6 214.3 L257.9 215.7 L244.2 214.8 L231.2 213.1 L220.1 212.0 L211.2 212.7 L203.9 215.5 L197.5 219.9 L190.9 224.8 L183.7 229.3 L175.8 232.7 L167.4 235.0 L158.8 236.8 L150.0 238.5 L140.9 240.3 L131.5 241.8 L122.0 242.3 L112.7 241.2 L103.9 238.2 L95.8 234.0 L88.0 229.7 L79.8 226.4 L70.2 224.8 L58.8 224.6 L46.0 224.8 L32.8 224.0 L21.0 220.9 L12.3 214.9 L7.4 206.3 L6.3 196.0 L7.8 185.2 L10.1 174.9 L11.8 165.6 L12.2 157.3 L11.4 149.7 L10.3 142.2 L9.7 134.8 L10.0 127.3 L11.0 120.0 L12.1 112.8 L12.6 105.5 L12.6 98.2 L12.6 90.6 L13.6 83.1 L16.8 76.1 L22.6 70.0 L30.2 65.1 L38.5 61.0 L45.6 56.8 L50.5 51.4 L52.7 43.9 L53.3 34.2 L53.7 23.0 L55.6 11.7 L60.0 1.8 L67.2 -5.5 L76.7 -9.8 L87.5 -11.6 L98.5 -12.0 L109.4 -11.9 L119.8 -11.9 L130.0 -12.0 L140.1 -11.7 L150.0 -10.5 L159.7 -8.2 L169.0 -5.2 L178.0 -2.3 L187.0 -0.0 L196.2 1.4 L205.8 2.5 L215.3 4.4 L223.7 8.2 L230.3 14.5 L234.5 23.1 L236.4 32.9 L237.4 42.5 L238.9 50.5 L242.5 56.2 L249.2 60.0 L258.6 62.6 L269.6 65.2 L280.4 68.9 L289.6 73.9 L296.3 80.4 L300.8 87.7 L303.8 95.6 L306.1 103.6 L308.2 111.7 L309.8 120.0 Z" stroke-width="1.6"/><path d="M333.6 120.0 L334.3 129.7 L333.3 139.3 L330.5 148.7 L326.5 157.8 L322.4 166.7 L319.0 175.8 L316.9 185.5 L315.4 195.8 L313.1 206.2 L308.1 215.7 L299.5 223.0 L287.0 227.2 L271.9 228.2 L256.1 226.8 L241.4 224.9 L229.2 224.0 L219.7 225.6 L212.1 229.9 L205.1 236.0 L197.8 242.7 L189.6 248.4 L180.4 252.6 L170.5 255.2 L160.3 256.7 L150.0 258.0 L139.5 259.4 L128.7 260.6 L117.8 260.9 L107.0 259.6 L96.8 256.6 L87.1 252.4 L77.6 248.1 L67.6 245.0 L56.0 243.5 L42.5 243.3 L27.6 243.3 L12.8 241.8 L-0.1 237.5 L-9.2 229.7 L-13.6 219.0 L-13.7 206.6 L-11.2 193.8 L-8.1 182.0 L-6.2 171.5 L-6.3 162.3 L-8.1 153.8 L-10.5 145.5 L-12.3 137.1 L-12.7 128.5 L-12.0 120.0 L-10.7 111.6 L-9.6 103.2 L-8.9 94.7 L-8.2 86.1 L-6.3 77.7 L-2.3 69.7 L4.2 62.8 L12.6 57.0 L21.3 51.9 L28.5 46.5 L33.2 39.5 L35.1 30.1 L35.3 18.2 L35.8 4.9 L38.3 -8.1 L44.1 -19.1 L53.2 -26.7 L64.9 -30.7 L77.9 -31.8 L91.0 -31.2 L103.6 -30.5 L115.6 -30.3 L127.2 -30.6 L138.6 -30.7 L150.0 -30.0 L161.2 -28.0 L172.0 -25.1 L182.5 -22.0 L192.9 -19.4 L203.5 -17.3 L214.3 -15.4 L224.8 -12.5 L234.1 -7.4 L241.2 0.3 L245.6 10.3 L247.9 21.4 L249.4 31.8 L251.8 40.3 L257.1 46.1 L266.0 49.7 L278.1 52.3 L291.7 55.1 L304.6 59.4 L315.1 65.5 L322.4 73.3 L326.6 82.2 L329.0 91.5 L330.6 101.0 L332.2 110.4 L333.6 120.0 Z" stroke-width="0.8"/><path d="M357.1 120.0 L358.1 130.9 L357.7 141.9 L355.4 152.7 L351.7 163.2 L347.5 173.5 L343.9 184.0 L341.1 194.9 L338.6 206.4 L334.8 217.8 L328.1 227.8 L317.2 235.3 L302.4 239.2 L285.0 239.8 L267.3 238.1 L251.3 236.1 L238.3 235.9 L228.3 238.7 L220.4 244.7 L213.1 252.8 L205.1 261.3 L195.7 268.3 L185.0 273.1 L173.6 275.6 L161.8 276.7 L150.0 277.4 L138.1 278.2 L125.9 279.0 L113.6 279.2 L101.3 278.1 L89.5 275.3 L78.1 271.3 L66.8 267.3 L54.8 264.3 L41.2 262.9 L25.7 262.6 L9.0 262.1 L-7.3 259.6 L-20.8 253.7 L-29.9 244.0 L-33.5 231.1 L-32.6 216.5 L-29.0 202.0 L-25.2 188.7 L-23.5 177.2 L-24.5 167.2 L-27.7 158.0 L-31.7 148.9 L-34.7 139.4 L-36.0 129.7 L-35.3 120.0 L-33.5 110.4 L-31.6 100.9 L-30.0 91.4 L-28.3 81.8 L-25.7 72.4 L-21.0 63.6 L-13.9 55.7 L-5.2 48.9 L3.5 42.5 L10.6 35.6 L14.9 26.8 L16.3 15.4 L16.4 1.4 L17.1 -13.8 L20.6 -28.4 L28.0 -40.2 L39.3 -47.8 L53.4 -51.1 L68.7 -51.2 L83.8 -49.7 L98.1 -48.4 L111.5 -48.1 L124.4 -48.8 L137.2 -49.6 L150.0 -49.6 L162.7 -48.2 L175.1 -45.4 L187.1 -42.0 L198.9 -38.7 L210.7 -35.7 L222.6 -32.7 L233.9 -28.6 L243.8 -22.2 L251.4 -13.2 L256.3 -1.9 L259.1 10.1 L261.4 21.2 L265.2 29.8 L272.5 35.6 L283.9 38.9 L298.8 41.3 L314.9 44.5 L329.8 49.5 L341.4 56.9 L348.7 66.2 L352.4 76.7 L353.8 87.6 L354.6 98.5 L355.7 109.2 L357.1 120.0 Z" stroke-width="0.8"/><path d="M380.3 120.0 L382.0 132.2 L382.5 144.5 L381.0 156.7 L377.6 168.7 L373.3 180.5 L369.1 192.3 L365.3 204.4 L361.4 216.8 L355.8 228.8 L347.0 239.2 L333.8 246.7 L316.7 250.4 L297.2 250.7 L277.9 248.8 L260.8 247.1 L247.4 247.8 L237.2 252.2 L229.2 260.3 L221.5 270.5 L212.7 280.7 L202.0 288.9 L189.8 294.0 L176.7 296.2 L163.3 296.6 L150.0 296.4 L136.7 296.6 L123.1 297.2 L109.4 297.5 L95.5 296.8 L82.0 294.5 L68.7 291.0 L55.5 287.4 L41.4 284.6 L25.8 283.1 L8.5 282.3 L-9.8 280.9 L-27.0 277.1 L-40.9 269.4 L-49.6 257.6 L-52.3 242.5 L-50.2 225.9 L-45.7 209.6 L-41.6 195.1 L-40.3 182.8 L-42.6 172.2 L-47.6 162.3 L-53.4 152.3 L-57.8 141.9 L-59.7 131.0 L-58.9 120.0 L-56.3 109.2 L-53.2 98.6 L-50.5 88.1 L-47.8 77.7 L-44.4 67.4 L-39.3 57.5 L-32.1 48.6 L-23.5 40.5 L-15.0 32.7 L-8.4 24.1 L-4.6 13.4 L-3.5 -0.1 L-3.4 -16.2 L-2.1 -33.2 L2.7 -49.0 L12.0 -61.2 L25.7 -68.5 L42.2 -70.9 L59.8 -69.8 L76.9 -67.4 L92.8 -65.6 L107.5 -65.5 L121.7 -66.9 L135.8 -68.7 L150.0 -69.6 L164.2 -68.7 L178.2 -65.9 L191.7 -62.0 L204.8 -57.7 L217.7 -53.6 L230.4 -49.3 L242.5 -43.8 L253.0 -36.2 L261.2 -26.0 L266.6 -13.8 L270.2 -1.1 L273.6 10.3 L279.2 18.9 L288.8 24.3 L303.0 27.4 L320.6 29.8 L339.2 33.3 L355.8 39.3 L368.0 48.1 L375.1 59.1 L377.8 71.3 L378.0 83.7 L377.9 96.0 L378.7 108.0 L380.3 120.0 Z" stroke-width="0.8"/><path d="M403.5 120.0 L406.3 133.4 L407.9 147.1 L407.2 160.9 L404.2 174.4 L399.5 187.6 L394.4 200.6 L389.1 213.8 L383.4 226.9 L375.7 239.4 L364.6 249.9 L349.2 257.3 L329.9 260.8 L308.7 260.8 L288.1 259.1 L270.4 258.1 L256.7 260.1 L246.6 266.4 L238.5 276.7 L230.3 289.0 L220.5 300.9 L208.5 310.0 L194.7 315.2 L179.8 316.7 L164.8 316.1 L150.0 315.0 L135.3 314.6 L120.4 315.2 L105.1 316.0 L89.6 315.9 L74.2 314.4 L58.9 311.6 L43.6 308.4 L27.5 305.6 L10.0 303.8 L-8.9 302.3 L-28.4 299.7 L-46.3 294.2 L-60.2 284.5 L-68.2 270.4 L-69.9 253.1 L-66.7 234.6 L-61.4 216.9 L-57.4 201.3 L-57.1 188.3 L-61.0 177.1 L-68.1 166.7 L-75.7 155.9 L-81.5 144.4 L-83.8 132.3 L-82.5 120.0 L-78.8 108.0 L-74.3 96.4 L-70.2 85.0 L-66.5 73.7 L-62.7 62.4 L-57.5 51.5 L-50.6 41.3 L-42.5 31.8 L-34.6 22.4 L-28.6 11.9 L-25.3 -0.8 L-24.4 -16.4 L-24.0 -34.4 L-21.7 -52.9 L-15.3 -69.5 L-3.7 -81.8 L12.4 -88.5 L31.5 -89.8 L51.4 -87.5 L70.4 -84.3 L87.7 -82.3 L103.6 -82.6 L118.9 -85.1 L134.3 -88.1 L150.0 -90.0 L165.8 -89.6 L181.3 -86.6 L196.2 -81.9 L210.5 -76.4 L224.4 -70.7 L237.9 -64.9 L250.5 -58.1 L261.7 -49.3 L270.4 -38.2 L276.7 -25.3 L281.4 -12.4 L286.4 -1.0 L294.1 7.2 L306.3 12.3 L323.3 15.1 L343.7 17.6 L364.5 21.8 L382.3 28.9 L394.8 39.2 L401.2 52.0 L402.7 65.9 L401.6 80.0 L400.7 93.6 L401.3 106.8 L403.5 120.0 Z" stroke-width="0.8"/><path d="M426.9 120.0 L431.1 134.7 L434.0 149.9 L434.3 165.2 L431.4 180.2 L426.1 194.8 L419.5 208.9 L412.4 222.9 L404.4 236.6 L394.4 249.2 L380.9 259.8 L363.3 267.1 L342.3 270.4 L319.7 270.6 L298.2 269.3 L280.2 269.3 L266.5 273.0 L256.5 281.4 L248.2 294.0 L239.5 308.4 L228.7 321.8 L215.2 331.5 L199.5 336.4 L182.9 337.0 L166.2 335.2 L150.0 333.2 L134.0 332.4 L117.7 333.2 L100.8 334.7 L83.5 335.7 L66.1 335.3 L48.7 333.3 L31.2 330.3 L13.2 327.4 L-6.0 324.9 L-26.3 322.3 L-46.6 318.1 L-64.8 310.6 L-78.3 298.7 L-85.5 282.4 L-86.2 263.0 L-82.1 242.7 L-76.5 223.8 L-73.0 207.4 L-73.9 193.9 L-79.9 182.3 L-89.2 171.2 L-98.8 159.6 L-105.7 146.9 L-108.0 133.5 L-105.9 120.0 L-100.7 106.9 L-94.6 94.3 L-89.1 82.0 L-84.7 69.8 L-80.6 57.6 L-75.9 45.5 L-69.7 33.8 L-62.5 22.7 L-55.5 11.3 L-50.1 -1.2 L-47.2 -15.9 L-46.1 -33.5 L-45.1 -53.1 L-41.4 -72.8 L-33.0 -89.9 L-19.0 -101.9 L-0.2 -107.7 L21.4 -107.8 L43.4 -104.4 L64.0 -100.5 L82.7 -98.6 L99.7 -99.8 L116.1 -103.5 L132.8 -107.9 L150.0 -110.8 L167.4 -110.7 L184.5 -107.3 L200.7 -101.4 L216.0 -94.3 L230.7 -87.0 L244.8 -79.6 L258.1 -71.4 L269.8 -61.7 L279.5 -50.0 L286.8 -37.0 L293.0 -24.1 L300.0 -13.1 L310.1 -5.3 L325.0 -0.6 L344.8 2.0 L367.8 4.8 L390.4 9.9 L409.1 18.4 L421.4 30.4 L426.8 45.1 L426.8 60.8 L424.5 76.4 L422.9 91.3 L423.7 105.6 L426.9 120.0 Z" stroke-width="1.6"/><path d="M450.7 120.0 L456.6 136.1 L461.0 152.7 L462.1 169.6 L459.1 186.1 L452.7 201.9 L444.2 217.1 L434.7 231.6 L424.1 245.6 L411.6 258.4 L395.9 268.9 L376.4 276.1 L353.8 279.5 L330.3 280.0 L308.4 279.6 L290.4 281.0 L276.9 286.6 L267.0 297.3 L258.5 312.2 L249.1 328.6 L237.0 343.1 L221.8 353.1 L204.3 357.4 L185.9 356.9 L167.7 353.9 L150.0 351.0 L132.6 350.0 L114.9 351.4 L96.4 354.0 L77.2 356.4 L57.5 357.2 L37.9 355.9 L18.3 353.2 L-1.6 349.7 L-22.2 346.1 L-43.5 341.9 L-64.2 335.8 L-82.3 326.1 L-95.3 311.9 L-101.6 293.5 L-101.4 272.2 L-96.7 250.4 L-91.1 230.5 L-88.5 213.5 L-91.3 199.6 L-99.5 187.6 L-111.2 175.9 L-122.5 163.3 L-130.2 149.5 L-132.3 134.8 L-128.9 120.0 L-121.9 105.7 L-114.0 92.2 L-107.3 79.1 L-102.3 66.0 L-98.6 52.7 L-94.7 39.3 L-89.8 26.0 L-83.8 12.9 L-77.8 -0.5 L-73.0 -15.0 L-70.2 -31.8 L-68.7 -51.1 L-66.5 -72.1 L-61.0 -92.6 L-50.3 -109.8 L-33.7 -121.2 L-12.2 -125.9 L11.8 -124.8 L35.7 -120.5 L57.9 -116.2 L77.7 -114.7 L95.7 -117.1 L113.3 -122.3 L131.3 -128.2 L150.0 -132.0 L169.0 -132.0 L187.6 -127.8 L205.0 -120.4 L221.3 -111.4 L236.6 -102.2 L251.3 -93.2 L265.1 -83.9 L277.7 -73.5 L288.4 -61.7 L297.2 -48.8 L305.3 -36.4 L314.5 -26.0 L327.2 -18.7 L345.0 -14.4 L367.6 -11.7 L392.7 -8.4 L416.8 -2.2 L435.9 7.9 L447.6 21.8 L451.7 38.3 L450.2 55.8 L446.8 72.8 L444.8 89.0 L446.2 104.5 L450.7 120.0 Z" stroke-width="0.8"/><path d="M475.2 120.0 L482.9 137.5 L488.9 155.7 L490.5 174.1 L486.9 192.1 L478.9 209.1 L468.1 224.9 L455.7 239.9 L442.4 253.9 L427.3 266.7 L409.5 277.1 L388.5 284.4 L364.9 288.2 L340.9 289.4 L319.0 290.3 L301.2 293.4 L288.0 301.2 L278.2 314.3 L269.3 331.4 L259.0 349.4 L245.4 364.8 L228.5 374.6 L209.1 378.0 L188.8 376.2 L169.0 372.0 L150.0 368.5 L131.3 367.7 L112.1 370.0 L91.8 374.1 L70.5 378.1 L48.6 380.2 L26.7 379.6 L5.0 376.7 L-16.5 372.4 L-38.3 367.2 L-60.1 361.0 L-80.9 352.6 L-98.6 340.6 L-110.9 324.2 L-116.4 303.7 L-115.5 280.7 L-110.6 257.8 L-105.6 237.1 L-104.4 219.8 L-109.3 205.5 L-120.0 193.1 L-133.9 180.7 L-146.8 167.2 L-154.9 152.1 L-156.2 136.1 L-151.2 120.0 L-142.3 104.7 L-132.6 90.2 L-124.8 76.3 L-119.8 62.3 L-116.8 47.8 L-114.4 32.8 L-111.0 17.6 L-106.6 2.5 L-101.6 -13.0 L-97.3 -29.7 L-94.2 -48.3 L-91.7 -69.1 L-87.9 -91.1 L-80.3 -112.0 L-67.0 -128.9 L-47.7 -139.6 L-23.6 -143.2 L2.6 -141.0 L28.4 -135.9 L51.9 -131.7 L72.7 -131.0 L91.7 -134.7 L110.3 -141.7 L129.7 -149.0 L150.0 -153.5 L170.6 -153.3 L190.6 -147.9 L209.2 -138.6 L226.3 -127.5 L242.1 -116.3 L257.3 -105.7 L271.8 -95.6 L285.3 -85.1 L297.4 -73.5 L308.1 -61.3 L318.4 -49.6 L330.2 -39.9 L345.7 -33.2 L366.2 -29.1 L391.3 -26.1 L418.3 -21.9 L443.3 -14.4 L462.4 -2.5 L473.1 13.4 L475.8 31.8 L472.9 50.9 L468.5 69.4 L466.6 86.7 L468.9 103.3 L475.2 120.0 Z" stroke-width="0.8"/><path d="M500.5 120.0 L510.2 138.9 L517.5 158.7 L519.4 178.7 L514.8 198.0 L504.6 216.0 L490.8 232.4 L475.3 247.6 L459.0 261.5 L441.5 274.1 L421.9 284.6 L399.8 292.2 L375.8 296.7 L351.8 299.1 L330.2 301.5 L312.8 306.7 L299.9 316.8 L290.0 332.2 L280.6 351.3 L269.1 370.7 L253.9 386.5 L235.0 395.9 L213.7 398.2 L191.7 395.0 L170.4 389.7 L150.0 385.8 L129.9 385.6 L109.2 389.3 L87.0 395.2 L63.4 401.0 L39.1 404.3 L15.0 404.2 L-8.5 400.7 L-31.4 395.0 L-54.0 387.9 L-76.0 379.3 L-96.6 368.4 L-113.6 354.0 L-125.2 335.4 L-130.1 313.1 L-128.9 288.8 L-124.3 265.1 L-120.3 243.8 L-120.9 226.2 L-128.1 211.8 L-141.3 198.9 L-157.3 185.7 L-171.3 171.1 L-179.5 154.7 L-179.6 137.3 L-172.7 120.0 L-161.7 103.7 L-150.4 88.4 L-141.9 73.6 L-137.3 58.5 L-135.7 42.6 L-135.2 25.9 L-133.8 8.7 L-131.0 -8.7 L-126.9 -26.4 L-122.7 -45.1 L-118.9 -65.4 L-114.9 -87.3 L-109.0 -109.9 L-98.9 -130.7 L-82.9 -147.1 L-60.9 -156.9 L-34.3 -159.4 L-6.0 -156.3 L21.3 -150.9 L45.9 -147.0 L67.6 -147.5 L87.5 -152.9 L107.3 -161.6 L128.1 -170.2 L150.0 -175.2 L172.2 -174.3 L193.6 -167.3 L213.1 -155.8 L230.8 -142.4 L247.2 -129.2 L262.8 -117.4 L278.1 -106.9 L292.9 -96.6 L306.7 -85.8 L319.7 -74.6 L332.6 -63.9 L347.2 -55.0 L365.5 -48.7 L388.6 -44.5 L415.7 -40.9 L444.1 -35.5 L469.6 -26.4 L488.2 -12.6 L497.8 5.2 L498.9 25.5 L494.8 46.2 L489.9 66.0 L488.4 84.4 L492.2 102.1 L500.5 120.0 Z" stroke-width="0.8"/><path d="M526.8 120.0 L538.4 140.4 L546.8 161.8 L548.4 183.3 L542.1 203.9 L529.2 222.7 L512.0 239.4 L493.1 254.5 L473.9 268.4 L454.2 280.9 L433.4 291.6 L410.7 299.7 L386.8 305.3 L363.2 309.2 L342.2 313.6 L325.3 321.1 L312.6 333.5 L302.4 351.0 L292.2 371.8 L279.3 392.2 L262.3 408.0 L241.4 416.7 L218.1 417.7 L194.5 413.2 L171.7 407.1 L150.0 403.3 L128.6 404.1 L106.1 409.5 L81.9 417.5 L56.0 425.1 L29.3 429.6 L3.0 429.5 L-22.2 425.0 L-46.2 417.4 L-69.1 407.7 L-91.0 396.4 L-111.0 382.9 L-127.4 366.1 L-138.3 345.6 L-142.8 321.9 L-141.8 296.6 L-138.0 272.3 L-135.5 250.8 L-138.2 233.0 L-147.9 218.3 L-163.5 204.9 L-181.2 190.9 L-196.0 175.0 L-203.6 157.2 L-202.3 138.5 L-193.2 120.0 L-180.1 102.7 L-167.5 86.6 L-158.8 70.9 L-155.2 54.7 L-155.6 37.3 L-157.4 18.6 L-158.4 -0.9 L-157.1 -20.7 L-153.7 -40.6 L-149.1 -61.1 L-144.0 -82.7 L-138.1 -105.4 L-129.6 -128.1 L-116.7 -148.7 L-97.9 -164.3 L-73.2 -173.1 L-44.4 -174.7 L-14.4 -171.1 L14.3 -165.7 L39.8 -162.6 L62.3 -164.5 L83.2 -171.7 L104.2 -182.0 L126.5 -191.7 L150.0 -196.7 L173.8 -194.8 L196.4 -185.8 L216.8 -171.8 L235.0 -156.0 L251.8 -141.1 L268.0 -128.4 L284.3 -117.9 L300.7 -108.4 L316.7 -98.9 L332.2 -89.0 L348.0 -79.4 L365.5 -71.2 L386.5 -65.1 L411.9 -60.6 L440.7 -56.0 L470.0 -49.2 L495.4 -38.3 L513.3 -22.4 L521.5 -2.6 L521.3 19.5 L516.2 41.6 L511.3 62.6 L510.7 82.0 L516.3 100.8 L526.8 120.0 Z" stroke-width="0.8"/></g><path d="M-10 610C260 450 380 610 590 490S950 440 1170 245S1480 130 1640 40" fill="none" stroke="#c6c49b" stroke-width="3" opacity=".5"/></svg>